<svg width="90" height="112" viewBox="0 0 90 112" fill="none" xmlns="http://www.w3.org/2000/svg">
<g clip-path="url(#clip0_989_375)">
<path d="M20.9746 34.8044C22.0773 31.5159 23.9277 28.5279 26.3803 26.0753C28.8329 23.6228 31.8208 21.7724 35.1093 20.6696C35.6138 20.5021 36.0526 20.18 36.3637 19.749C36.6747 19.318 36.8421 18.8 36.8421 18.2684C36.8421 17.7369 36.6747 17.2189 36.3637 16.7879C36.0526 16.3569 35.6138 16.0348 35.1093 15.8673C31.8208 14.7645 28.8329 12.9142 26.3803 10.4617C23.9277 8.0091 22.0773 5.02117 20.9746 1.73269C20.807 1.22827 20.4849 0.789416 20.0539 0.4784C19.6229 0.167383 19.1049 0 18.5733 0C18.0418 0 17.5238 0.167383 17.0928 0.4784C16.6618 0.789416 16.3396 1.22827 16.1721 1.73269C15.0694 5.02115 13.219 8.00907 10.7665 10.4616C8.3139 12.9142 5.32598 14.7645 2.03752 15.8673C1.53307 16.0348 1.09418 16.3569 0.783133 16.7879C0.472088 17.2189 0.304687 17.7369 0.304688 18.2684C0.304687 18.8 0.472088 19.318 0.783133 19.749C1.09418 20.18 1.53307 20.5021 2.03752 20.6696C5.32598 21.7724 8.31389 23.6228 10.7664 26.0754C13.219 28.5279 15.0694 31.5159 16.1721 34.8044C16.3396 35.3088 16.6617 35.7478 17.0927 36.0589C17.5237 36.3699 18.0418 36.5374 18.5733 36.5374C19.1049 36.5374 19.623 36.3699 20.054 36.0589C20.485 35.7478 20.8071 35.3088 20.9746 34.8044ZM8.86964 18.2687C12.8586 15.8885 16.1932 12.5538 18.5733 8.56482C20.9465 12.5593 24.2826 15.8955 28.277 18.2687C24.2771 20.6347 20.9394 23.9724 18.5733 27.9722C16.2003 23.9778 12.8641 20.6417 8.86964 18.2687Z" fill="#42C652"/>
<path d="M29.0046 53.5849C29.3624 52.5278 29.8567 51.5219 30.4751 50.5928C31.3474 49.2932 32.4549 48.1682 33.7406 47.2757C34.7088 46.6036 35.7683 46.0739 36.8869 45.7027C37.1788 45.6025 37.4385 45.4257 37.6386 45.1907C37.8388 44.9557 37.9721 44.6712 38.0245 44.3671C38.077 44.0629 38.0467 43.7502 37.9368 43.4617C37.8269 43.1733 37.6414 42.9197 37.3999 42.7275C37.2443 42.6099 37.0712 42.5176 36.8869 42.4541C35.3349 41.9344 33.9001 41.1153 32.6636 40.0431C30.9824 38.5742 29.72 36.6865 29.0046 34.5718C28.893 34.2289 28.6758 33.93 28.384 33.7181C28.0922 33.5062 27.7409 33.3921 27.3803 33.3921C27.0197 33.3921 26.6683 33.5062 26.3765 33.7181C26.0847 33.93 25.8675 34.2289 25.756 34.5718C25.1409 36.4056 24.109 38.0718 22.7413 39.4395C21.3736 40.8071 19.7075 41.839 17.8737 42.4541C17.5346 42.5696 17.2401 42.7883 17.0316 43.0796C16.8231 43.3709 16.7109 43.7202 16.7109 44.0784C16.7109 44.4366 16.8231 44.7859 17.0316 45.0772C17.2401 45.3685 17.5346 45.5872 17.8737 45.7027C19.4733 46.2369 20.9499 47.0856 22.2166 48.199C23.183 49.08 24.0128 50.1 24.6787 51.2255C25.1236 51.9699 25.4849 52.7611 25.7559 53.5849C25.8714 53.924 26.0901 54.2185 26.3814 54.427C26.6727 54.6355 27.022 54.7476 27.3802 54.7476C27.7385 54.7476 28.0877 54.6355 28.379 54.427C28.6703 54.2185 28.8891 53.924 29.0046 53.5849ZM23.6871 44.9846C23.2596 44.6596 22.8322 44.369 22.3877 44.0783C24.4 42.7957 26.1047 41.0852 27.3804 39.0686C27.8407 39.8153 28.3671 40.5192 28.9534 41.1717C29.7998 42.1157 30.7521 42.9591 31.7916 43.685C31.9785 43.826 32.1725 43.9572 32.3729 44.0783C30.9949 44.9549 29.7559 46.0326 28.6968 47.2757C28.2144 47.841 27.7744 48.4411 27.3803 49.0711C26.3967 47.5042 25.1469 46.1212 23.6871 44.9846Z" fill="#42C652"/>
<path d="M88.4533 0.242573C87.8442 -0.0434847 87.1467 -0.0768839 86.513 0.149671C85.8794 0.376225 85.3611 0.844323 85.0715 1.45173L68.7759 35.8832L61.8895 32.6241L61.8438 32.6024C61.5496 32.4673 61.2311 32.3929 60.9075 32.384C60.4032 32.3454 59.8991 32.4614 59.4622 32.7164C59.0254 32.9714 58.6765 33.3533 58.4621 33.8114C53.01 45.269 44.0114 54.6651 32.8 60.607L28.2965 62.999C27.9489 63.1772 27.6486 63.4354 27.4204 63.7524C27.1922 64.0694 27.0426 64.4361 26.984 64.8222C26.9169 65.2064 26.9396 65.6009 27.0501 65.9749C27.1607 66.3489 27.3562 66.6922 27.6214 66.9782C40.0463 80.3884 57.1644 88.4899 75.4123 89.5965C75.8015 89.6202 76.191 89.5537 76.5503 89.4021C76.9096 89.2504 77.229 89.0178 77.4835 88.7223C77.745 88.4322 77.9338 88.0841 78.0343 87.7067C78.1348 87.3292 78.1441 86.9333 78.0615 86.5516L77.0559 81.5523C74.543 69.115 76.1041 56.199 81.5081 44.7186C81.7264 44.2623 81.8005 43.7503 81.7207 43.2508C81.6409 42.7513 81.411 42.2879 81.0614 41.9223C80.8493 41.6778 80.5899 41.4786 80.2989 41.3368L80.253 41.315L73.3667 38.056L89.6623 3.62445C89.9484 3.01536 89.9819 2.31782 89.7553 1.68416C89.5288 1.05051 89.0607 0.532245 88.4533 0.242573ZM72.0797 82.5687L72.411 84.2427C61.372 83.0072 50.8222 79.0102 41.7359 72.6206C45.6544 70.2732 49.3176 67.5239 52.6663 64.4173C53.1598 63.9588 53.451 63.3231 53.4758 62.6499C53.5006 61.9768 53.2569 61.3214 52.7985 60.8279C52.34 60.3343 51.7043 60.0432 51.0311 60.0184C50.358 59.9936 49.7026 60.2372 49.2091 60.6957C46.0642 63.6112 42.6208 66.1871 38.936 68.3809C38.4717 68.6759 37.9504 69.014 37.4593 69.3283C36.154 68.2337 34.8928 67.1035 33.6641 65.9048L35.169 65.0998C43.5202 60.683 50.7883 54.4698 56.4503 46.9072L72.6562 54.577C70.3975 63.7503 70.2006 73.3102 72.0797 82.5687ZM75.8768 44.8631C75.2178 46.4336 74.6046 48.0257 74.0714 49.6277L69.0213 47.2377L64.4304 45.0649L59.3805 42.6749C60.2812 41.2466 61.1238 39.7631 61.9206 38.2578L66.6032 40.474L71.194 42.6468L75.8768 44.8631Z" fill="#42C652"/>
</g>
<defs>
<clipPath id="clip0_989_375">
<rect width="89.6" height="112" fill="white" transform="translate(0.304688)"/>
</clipPath>
</defs>
</svg>
