<svg width="60" height="60" viewBox="0 0 60 60" fill="none" xmlns="http://www.w3.org/2000/svg">
<path d="M33.9319 54.9367C33.8341 54.9367 33.7399 54.9324 33.6493 54.9247C30.6313 54.666 24.3127 52.3621 20.6797 50.4745C19.7721 50.0075 18.775 49.7405 17.7555 49.6916C16.736 49.6426 15.7178 49.8128 14.7697 50.1907C14.5336 50.2803 14.2716 50.2734 14.0406 50.1713C13.8096 50.0692 13.6282 49.8801 13.5356 49.6452C13.443 49.4102 13.4467 49.1482 13.546 48.9159C13.6453 48.6837 13.8321 48.4999 14.0659 48.4045C15.2695 47.9254 16.5618 47.7102 17.8557 47.7735C19.1496 47.8367 20.4148 48.1769 21.5659 48.771C25.3459 50.7354 31.2991 52.7965 33.8137 53.0119C34.4287 53.0641 36.5515 52.7815 42.9775 49.0285C46.7209 46.8415 50.5423 44.2693 52.0597 43.1407C52.4119 42.8791 52.8265 42.3505 52.8793 42.1471C53.0947 41.3113 53.0947 40.9753 52.8793 40.5871C52.4593 39.8359 51.3793 39.4981 50.5651 39.8671L38.6605 45.2461C38.4285 45.3509 38.1643 45.3593 37.9261 45.2694C37.6879 45.1795 37.4952 44.9987 37.3903 44.7667C37.2854 44.5346 37.277 44.2705 37.3669 44.0323C37.4568 43.7941 37.6377 43.6013 37.8697 43.4965L49.7713 38.1145C51.4993 37.3345 53.6443 38.0227 54.5539 39.6505C55.1539 40.7305 54.9739 41.7121 54.7375 42.6271C54.5245 43.4521 53.6845 44.3251 53.2051 44.6815C51.6517 45.8365 47.7523 48.4615 43.9453 50.6863C41.7253 51.9817 39.7927 52.9975 38.1961 53.7055C36.3331 54.5317 34.9327 54.9367 33.9319 54.9367Z" fill="white"/>
<path d="M35.3662 47.4894C34.9163 47.4887 34.4699 47.411 34.0462 47.2596L28.0408 45.12C27.8009 45.0345 27.6048 44.8573 27.4956 44.6272C27.3864 44.3972 27.3731 44.1331 27.4585 43.8933C27.544 43.6534 27.7212 43.4572 27.9513 43.348C28.1813 43.2388 28.4453 43.2255 28.6852 43.311L34.6882 45.4488C35.049 45.5811 35.4409 45.6039 35.8145 45.5141C36.1882 45.4243 36.527 45.226 36.7882 44.9442C36.82 44.9094 36.8482 44.8788 36.8716 44.8488C37.2808 44.3688 37.4512 43.797 37.3516 43.2456C37.2472 42.6768 36.8716 42.1872 36.2896 41.8656C34.3492 40.7958 31.795 39.8856 28.6972 39.1548C26.2934 38.5917 23.8545 38.1908 21.397 37.9548C20.8066 37.9002 20.287 37.8678 20.0056 37.8678C19.5526 37.8678 18.1696 38.0478 13.9966 39.2568C13.8755 39.2918 13.7487 39.3027 13.6234 39.2887C13.4981 39.2748 13.3767 39.2363 13.2663 39.1754C13.0433 39.0526 12.8782 38.8461 12.8074 38.6016C12.7366 38.357 12.7658 38.0943 12.8887 37.8713C13.0116 37.6482 13.218 37.4832 13.4626 37.4124C18.5206 35.9478 19.6384 35.9478 20.0026 35.9478C20.3494 35.9478 20.9056 35.9814 21.5686 36.0426C24.1153 36.2869 26.6428 36.7018 29.134 37.2846C32.4022 38.0538 35.1202 39.0288 37.2136 40.1832C38.2936 40.7778 39.0292 41.766 39.2368 42.8958C39.4414 44.0082 39.112 45.1716 38.3338 46.089C38.2954 46.134 38.251 46.1862 38.2 46.2408C37.8404 46.6345 37.4027 46.9489 36.9148 47.1639C36.4268 47.3789 35.8994 47.4897 35.3662 47.4894Z" fill="white"/>
<path d="M8.8475 54.0864C8.10247 54.085 7.38585 53.8004 6.84291 53.2902C6.29998 52.78 5.97136 52.0825 5.9237 51.339L5.0459 37.4118C5.02157 37.0277 5.07316 36.6425 5.19771 36.2783C5.32226 35.9141 5.51734 35.578 5.7718 35.2893C6.02626 35.0005 6.33512 34.7647 6.68074 34.5953C7.02636 34.4259 7.40196 34.3262 7.7861 34.302L11.4827 34.0686C12.2586 34.0206 13.0218 34.2824 13.6049 34.7964C14.188 35.3105 14.5434 36.0348 14.5931 36.8106L15.4709 50.7372C15.4951 51.1213 15.4435 51.5065 15.3189 51.8707C15.1942 52.2349 14.9991 52.571 14.7446 52.8598C14.4901 53.1485 14.1812 53.3844 13.8355 53.5537C13.4899 53.7231 13.1143 53.8228 12.7301 53.847L9.0341 54.0804C8.9717 54.0846 8.9093 54.0864 8.8475 54.0864ZM11.6675 35.9832H11.6033L7.9073 36.216C7.77444 36.2241 7.64449 36.2583 7.5249 36.3168C7.40531 36.3752 7.29844 36.4567 7.21042 36.5565C7.12239 36.6564 7.05495 36.7726 7.01196 36.8986C6.96897 37.0246 6.95128 37.1578 6.9599 37.2906L7.8377 51.2184C7.85482 51.486 7.9774 51.7358 8.17853 51.9131C8.37966 52.0903 8.64291 52.1806 8.9105 52.164L12.6065 51.9306C12.8741 51.9138 13.124 51.7914 13.3013 51.5903C13.4787 51.3892 13.5689 51.126 13.5521 50.8584L12.6767 36.9312C12.6602 36.6746 12.5468 36.4338 12.3594 36.2578C12.172 36.0818 11.9246 35.9836 11.6675 35.9832Z" fill="white"/>
<path d="M26.0544 25.6476C23.6028 25.6476 21.4176 24.7596 19.656 23.0304C14.6478 18.1152 13.2468 6.62222 13.1892 6.13502C13.1724 5.99252 13.1878 5.84808 13.2343 5.71233C13.2807 5.57657 13.357 5.45295 13.4575 5.35055C13.558 5.24815 13.6801 5.16958 13.815 5.12062C13.9499 5.07166 14.094 5.05354 14.2368 5.06762C14.7246 5.11562 26.2422 6.30242 31.2498 11.2176C33.4524 13.3776 34.3518 16.2294 33.8508 19.4598C33.4818 21.8364 32.481 23.5806 32.439 23.6538C32.358 23.793 32.2433 23.9096 32.1054 23.9928C32.0334 24.0366 30.3096 25.0686 27.942 25.4796C27.3188 25.5898 26.6872 25.646 26.0544 25.6476ZM15.276 7.13522C15.7722 10.179 17.3688 18.096 21 21.66C22.5966 23.2272 24.4164 23.718 26.067 23.718C28.32 23.718 30.2592 22.8048 30.8934 22.4706C31.4181 21.4114 31.7783 20.2784 31.9614 19.1106C32.3502 16.5054 31.6584 14.3106 29.9046 12.5904C26.2734 9.02342 18.3288 7.57442 15.276 7.13522Z" fill="white"/>
<path d="M33.6567 32.1695C33.4036 32.1695 33.1608 32.0696 32.981 31.8915C32.8012 31.7134 32.699 31.4716 32.6967 31.2185C32.6619 27.5027 31.0389 24.1691 30.7887 23.6771C28.9287 21.1211 25.1943 16.5503 20.8131 14.1971C20.5909 14.0754 20.4259 13.8708 20.354 13.6279C20.282 13.385 20.309 13.1235 20.429 12.9005C20.549 12.6774 20.7524 12.5108 20.9947 12.4369C21.237 12.3631 21.4987 12.3881 21.7227 12.5063C26.4741 15.0599 30.4431 19.9307 32.3859 22.6073C32.4162 22.6493 32.443 22.6937 32.4663 22.7399C32.6283 23.0519 34.5771 26.8913 34.6173 31.1999C34.6185 31.326 34.5948 31.4511 34.5477 31.568C34.5005 31.6849 34.4308 31.7914 34.3425 31.8814C34.2542 31.9714 34.149 32.0431 34.033 32.0924C33.917 32.1418 33.7923 32.1677 33.6663 32.1689L33.6567 32.1695Z" fill="white"/>
<path d="M39.3536 27.6121C39.3074 27.6121 39.2618 27.6121 39.2162 27.6121C38.0408 27.5935 36.8162 27.3277 35.5766 26.8237C34.0274 26.1943 32.4356 25.1809 30.974 23.8933C30.7905 23.723 30.6808 23.4878 30.6682 23.2378C30.6556 22.9878 30.7412 22.7427 30.9068 22.5549C31.0723 22.3671 31.3046 22.2514 31.5542 22.2324C31.8038 22.2134 32.051 22.2927 32.243 22.4533C33.9308 23.9395 38.2946 27.1549 42.359 24.9133C46.8158 22.4575 50.4836 15.2623 51.779 12.4645C48.719 12.0655 40.679 11.3245 36.2228 13.7797C35.1104 14.3929 34.2278 15.2137 33.6002 16.2193C33.4654 16.4353 33.2503 16.5889 33.0023 16.6464C32.7542 16.7038 32.4935 16.6604 32.2775 16.5256C32.0614 16.3908 31.9078 16.1757 31.8504 15.9277C31.7929 15.6796 31.8364 15.4189 31.9712 15.2029C32.7746 13.9165 33.8912 12.8713 35.2958 12.0985C41.4434 8.7115 52.8548 10.6675 53.3402 10.7527C53.481 10.7779 53.6144 10.8342 53.7307 10.9176C53.8469 11.001 53.9431 11.1093 54.0121 11.2346C54.0811 11.3599 54.1213 11.4991 54.1296 11.6419C54.1379 11.7847 54.1142 11.9276 54.0602 12.0601C53.8742 12.5137 49.4324 23.2063 43.2866 26.5927C42.0841 27.2628 40.7301 27.6137 39.3536 27.6121Z" fill="white"/>
<path d="M31.6089 24.1315C31.4094 24.1316 31.2148 24.0695 31.0522 23.954C30.8896 23.8384 30.767 23.675 30.7016 23.4865C30.6361 23.298 30.631 23.0938 30.6869 22.9023C30.7429 22.7108 30.8571 22.5415 31.0137 22.4179C33.9327 20.1145 39.1197 17.0251 44.1267 15.9001C44.3733 15.8493 44.6299 15.8974 44.8413 16.034C45.0527 16.1706 45.2021 16.3847 45.2571 16.6303C45.3122 16.876 45.2686 17.1334 45.1357 17.3471C45.0029 17.5609 44.7913 17.714 44.5467 17.7733C40.1541 18.7603 35.1813 21.5743 32.2023 23.9251C32.0335 24.0589 31.8243 24.1316 31.6089 24.1315Z" fill="white"/>
<path d="M46.0972 41.7901H46.0534C45.8006 41.7787 45.5626 41.668 45.391 41.482C45.2195 41.2961 45.1282 41.0499 45.1372 40.7971V40.7899C45.1366 40.3331 45.0122 39.885 44.7772 39.4933C44.3103 38.6857 44.101 37.7548 44.1772 36.8251C44.1814 36.7651 44.1838 36.7051 44.1838 36.6451C44.1838 35.0371 42.6442 33.7291 40.7518 33.7291C40.5419 33.7292 40.3322 33.7455 40.1248 33.7777C38.5048 34.0333 36.8164 33.6655 35.3722 32.7433C34.7567 32.3562 34.0431 32.1538 33.316 32.1601C32.7383 32.1585 32.1674 32.2849 31.6444 32.5303C30.1196 33.2676 28.3743 33.4088 26.7508 32.9263C26.381 32.8155 25.9969 32.7595 25.6108 32.7601C23.7184 32.7601 22.1788 34.0681 22.1788 35.6761C22.1791 36.0056 22.2444 36.3318 22.3708 36.6361C22.419 36.7526 22.4438 36.8774 22.4438 37.0035C22.4438 37.1296 22.4189 37.2544 22.3706 37.3709C22.3223 37.4874 22.2516 37.5932 22.1624 37.6823C22.0732 37.7715 21.9674 37.8422 21.8509 37.8904C21.7344 37.9386 21.6095 37.9634 21.4835 37.9634C21.3574 37.9633 21.2325 37.9385 21.1161 37.8902C20.9996 37.8419 20.8938 37.7712 20.8046 37.682C20.7155 37.5928 20.6448 37.487 20.5966 37.3705C20.3732 36.8327 20.2584 36.256 20.2588 35.6737C20.2588 33.0073 22.6588 30.8377 25.6108 30.8377C26.1853 30.8369 26.7568 30.9204 27.307 31.0855C28.4733 31.4298 29.7261 31.3263 30.82 30.7951C31.6007 30.4278 32.4532 30.2382 33.316 30.2401C34.409 30.234 35.4809 30.5411 36.4048 31.1251C37.453 31.7947 38.668 32.0635 39.8248 31.8811C40.1309 31.8333 40.4402 31.8092 40.75 31.8091C43.7008 31.8091 46.102 33.9787 46.102 36.6451C46.102 36.7513 46.0978 36.8581 46.0906 36.9643C46.0432 37.5058 46.1625 38.0489 46.4326 38.5207C46.8391 39.2084 47.0545 39.9922 47.0566 40.7911V40.8751C47.045 41.1217 46.9389 41.3544 46.7602 41.5248C46.5815 41.6952 46.3441 41.7902 46.0972 41.7901Z" fill="white"/>
</svg>
