<svg width="60" height="60" viewBox="0 0 60 60" fill="none" xmlns="http://www.w3.org/2000/svg">
<g id="funding 1" clip-path="url(#clip0_7_1681)">
<path id="Vector" d="M33.7495 45C34.4398 45 34.9996 44.4416 34.9996 43.7503C34.9996 41.6826 33.3173 40.0004 31.2496 40.0004H19.9997C18.6209 40.0004 17.4999 38.8788 17.4999 37.5001C17.4999 36.1213 18.6209 35.0002 19.9997 35.0002H31.2496C31.3833 35.0002 31.517 34.9778 31.6447 34.9352L35.2019 33.7501H41.2494C43.3048 33.7501 45.2594 34.5278 46.6158 35.8842L47.8659 37.1339C48.3543 37.6227 49.1444 37.6227 49.6333 37.1339C50.1222 36.6454 50.1222 35.8553 49.6333 35.3664L48.3832 34.1163C46.5622 32.2953 43.9621 31.2502 41.2494 31.2502H34.9996C34.866 31.2502 34.7323 31.2727 34.6046 31.3152L31.0473 32.5004H19.9997C17.2421 32.5004 14.9996 34.7425 14.9996 37.5001C14.9996 40.2576 17.2421 42.5002 19.9997 42.5002H31.2496C31.9386 42.5002 32.4998 43.06 32.4998 43.7503C32.4998 44.4416 33.0596 45 33.7495 45Z" fill="white"/>
<path id="Vector_2" d="M40.3664 52.1336L42.1338 50.3662L39.634 47.8663C39.4 47.6311 39.0814 47.5001 38.75 47.5001H21.6961L8.45033 36.6626L2.91005 27.799C3.20256 27.6278 3.51017 27.5001 3.75004 27.5001C4.85782 27.5001 5.7326 27.5001 7.86623 29.6337L10.3665 32.134C10.4388 32.2063 10.519 32.2686 10.6064 32.3212L16.8562 36.0712L18.1425 33.9275L12.0241 30.2563L9.63273 27.8649C6.97909 25.2113 5.46024 25.0002 3.75004 25.0002C2.0316 25.0002 0.531521 26.4513 0.366268 26.6161C-0.0447998 27.0277 -0.1185 27.669 0.190029 28.1625L6.4403 38.1627C6.51263 38.2776 6.60281 38.3811 6.70901 38.4676L20.4588 49.7175C20.6826 49.9002 20.9628 50 21.2503 50H38.2323L40.3664 52.1336Z" fill="white"/>
<path id="Vector_3" d="M43.7499 59.9998C44.0699 59.9998 44.3899 59.8775 44.6334 59.6335C45.1223 59.1451 45.1223 58.355 44.6334 57.8661L40.5172 53.7499L53.7497 40.5174L57.8659 44.6336C58.3548 45.1225 59.1449 45.1225 59.6333 44.6336C60.1222 44.1452 60.1222 43.3551 59.6333 42.8662L54.6337 37.8661C54.1448 37.3776 53.3547 37.3776 52.8658 37.8661L37.8659 52.866C37.3774 53.3549 37.3774 54.145 37.8659 54.6339L42.866 59.6335C43.11 59.8775 43.43 59.9998 43.7499 59.9998Z" fill="white"/>
<path id="Vector_4" d="M15.0015 28.7504C15.2153 28.7504 15.4314 28.6964 15.6291 28.5801C16.2265 28.2327 16.4279 27.4664 16.0805 26.8704C14.5566 24.2538 13.7505 21.4464 13.7505 18.7502C13.7505 9.79039 21.0403 2.50054 30.0001 2.50054C38.9603 2.50054 46.2502 9.79039 46.2502 18.7502C46.2502 21.4464 45.444 24.2538 43.9202 26.8713C43.5727 27.4678 43.775 28.2327 44.3715 28.5815C44.9689 28.9276 45.7324 28.728 46.0813 28.1301C47.8262 25.1313 48.75 21.8876 48.75 18.7502C48.75 8.41161 40.3391 0.000244141 30.0001 0.000244141C19.6616 0.000244141 11.2502 8.41161 11.2502 18.7502C11.2502 21.8876 12.173 25.1313 13.9203 28.1292C14.1515 28.5279 14.5717 28.7504 15.0015 28.7504Z" fill="white"/>
<path id="Vector_5" d="M27.4999 27.5002H32.5C34.5673 27.5002 36.25 25.818 36.25 23.7503C36.25 23.0604 35.6897 22.5001 34.9999 22.5001C34.31 22.5001 33.7497 23.0604 33.7497 23.7503C33.7497 24.4392 33.1885 25.0004 32.5 25.0004H27.4999C26.81 25.0004 26.2497 24.4392 26.2497 23.7503V21.2504C26.2497 20.5615 26.81 20.0003 27.4999 20.0003H32.5C34.5673 20.0003 36.25 18.318 36.25 16.2503V13.7505C36.25 11.6828 34.5673 10.0005 32.5 10.0005H27.4999C25.4322 10.0005 23.7499 11.6828 23.7499 13.7505C23.7499 14.4403 24.3088 15.0002 25.0001 15.0002C25.6913 15.0002 26.2497 14.4403 26.2497 13.7505C26.2497 13.0615 26.81 12.5003 27.4999 12.5003H32.5C33.1885 12.5003 33.7497 13.0615 33.7497 13.7505V16.2503C33.7497 16.9392 33.1885 17.5005 32.5 17.5005H27.4999C25.4322 17.5005 23.7499 19.1827 23.7499 21.2504V23.7503C23.7499 25.818 25.4322 27.5002 27.4999 27.5002Z" fill="white"/>
<path id="Vector_6" d="M29.9999 29.9999C30.6902 29.9999 31.25 29.44 31.25 28.7502V8.75015C31.25 8.0603 30.6902 7.5 29.9999 7.5C29.31 7.5 28.7502 8.0603 28.7502 8.75015V28.7502C28.7502 29.44 29.31 29.9999 29.9999 29.9999Z" fill="white"/>
<path id="Vector_7" d="M20 17.5005H17.5002V20.0003H20V17.5005Z" fill="white"/>
<path id="Vector_8" d="M42.5 17.5005H40.0002V20.0003H42.5V17.5005Z" fill="white"/>
</g>
<defs>
<clipPath id="clip0_7_1681">
<rect width="60" height="60" fill="white" transform="matrix(-1 0 0 1 60 0)"/>
</clipPath>
</defs>
</svg>
