<svg width="42" height="42" viewBox="0 0 42 42" fill="none" xmlns="http://www.w3.org/2000/svg">
<path d="M32.3021 21.4823L23.6905 18.3094L20.5175 9.69773C20.3559 9.25959 20.0639 8.88151 19.6807 8.61447C19.2976 8.34743 18.8418 8.20426 18.3748 8.20426C17.9078 8.20426 17.4521 8.34743 17.0689 8.61447C16.6858 8.88151 16.3938 9.25959 16.2322 9.69773L13.0592 18.3094L4.44757 21.4823C4.00943 21.6439 3.63135 21.936 3.36431 22.3191C3.09727 22.7022 2.9541 23.158 2.9541 23.625C2.9541 24.092 3.09727 24.5478 3.36431 24.9309C3.63135 25.314 4.00943 25.6061 4.44757 25.7677L13.0592 28.9406L16.2322 37.5523C16.3938 37.9904 16.6858 38.3685 17.0689 38.6355C17.4521 38.9026 17.9078 39.0457 18.3748 39.0457C18.8418 39.0457 19.2976 38.9026 19.6807 38.6355C20.0639 38.3685 20.3559 37.9904 20.5175 37.5523L23.6905 28.9406L32.3021 25.7677C32.7403 25.6061 33.1183 25.314 33.3854 24.9309C33.6524 24.5478 33.7956 24.092 33.7956 23.625C33.7956 23.158 33.6524 22.7022 33.3854 22.3191C33.1183 21.936 32.7403 21.6439 32.3021 21.4823ZM31.6212 23.9203L22.5847 27.2508C22.4508 27.3 22.3293 27.3777 22.2284 27.4786C22.1276 27.5794 22.0499 27.701 22.0006 27.8348L18.6702 36.8714C18.6478 36.9317 18.6075 36.9837 18.5547 37.0204C18.5019 37.0571 18.4391 37.0768 18.3748 37.0768C18.3105 37.0768 18.2478 37.0571 18.195 37.0204C18.1422 36.9837 18.1019 36.9317 18.0795 36.8714L14.7491 27.8348C14.6998 27.701 14.6221 27.5794 14.5213 27.4786C14.4204 27.3777 14.2988 27.3 14.165 27.2508L5.12843 23.9203C5.06815 23.8979 5.01616 23.8576 4.97944 23.8049C4.94273 23.7521 4.92305 23.6893 4.92305 23.625C4.92305 23.5607 4.94273 23.4979 4.97944 23.4451C5.01616 23.3924 5.06815 23.3521 5.12843 23.3297L14.165 19.9992C14.2988 19.95 14.4204 19.8723 14.5213 19.7714C14.6221 19.6706 14.6998 19.549 14.7491 19.4152L18.0795 10.3786C18.1019 10.3183 18.1422 10.2663 18.195 10.2296C18.2478 10.1929 18.3105 10.1732 18.3748 10.1732C18.4391 10.1732 18.5019 10.1929 18.5547 10.2296C18.6075 10.2663 18.6478 10.3183 18.6702 10.3786L22.0006 19.4152C22.0499 19.549 22.1276 19.6706 22.2284 19.7714C22.3293 19.8723 22.4508 19.95 22.5847 19.9992L31.6212 23.3297C31.6815 23.3521 31.7335 23.3924 31.7702 23.4451C31.807 23.4979 31.8266 23.5607 31.8266 23.625C31.8266 23.6893 31.807 23.7521 31.7702 23.8049C31.7335 23.8576 31.6815 23.8979 31.6212 23.9203ZM23.953 6.5625C23.953 6.30143 24.0567 6.05105 24.2413 5.86644C24.4259 5.68184 24.6763 5.57813 24.9373 5.57812H27.8905V2.625C27.8905 2.36393 27.9942 2.11355 28.1788 1.92894C28.3634 1.74434 28.6138 1.64063 28.8748 1.64062C29.1359 1.64062 29.3863 1.74434 29.5709 1.92894C29.7555 2.11355 29.8592 2.36393 29.8592 2.625V5.57812H32.8123C33.0734 5.57813 33.3238 5.68184 33.5084 5.86644C33.693 6.05105 33.7967 6.30143 33.7967 6.5625C33.7967 6.82357 33.693 7.07395 33.5084 7.25856C33.3238 7.44316 33.0734 7.54687 32.8123 7.54688H29.8592V10.5C29.8592 10.7611 29.7555 11.0115 29.5709 11.1961C29.3863 11.3807 29.1359 11.4844 28.8748 11.4844C28.6138 11.4844 28.3634 11.3807 28.1788 11.1961C27.9942 11.0115 27.8905 10.7611 27.8905 10.5V7.54688H24.9373C24.6763 7.54687 24.4259 7.44316 24.2413 7.25856C24.0567 7.07395 23.953 6.82357 23.953 6.5625ZM40.3592 14.4375C40.3592 14.6986 40.2555 14.949 40.0709 15.1336C39.8863 15.3182 39.6359 15.4219 39.3748 15.4219H37.7342V17.0625C37.7342 17.3236 37.6305 17.574 37.4459 17.7586C37.2613 17.9432 37.0109 18.0469 36.7498 18.0469C36.4888 18.0469 36.2384 17.9432 36.0538 17.7586C35.8692 17.574 35.7655 17.3236 35.7655 17.0625V15.4219H34.1248C33.8638 15.4219 33.6134 15.3182 33.4288 15.1336C33.2442 14.949 33.1405 14.6986 33.1405 14.4375C33.1405 14.1764 33.2442 13.926 33.4288 13.7414C33.6134 13.5568 33.8638 13.4531 34.1248 13.4531H35.7655V11.8125C35.7655 11.5514 35.8692 11.301 36.0538 11.1164C36.2384 10.9318 36.4888 10.8281 36.7498 10.8281C37.0109 10.8281 37.2613 10.9318 37.4459 11.1164C37.6305 11.301 37.7342 11.5514 37.7342 11.8125V13.4531H39.3748C39.6359 13.4531 39.8863 13.5568 40.0709 13.7414C40.2555 13.926 40.3592 14.1764 40.3592 14.4375Z" fill="#EAC605"/>
</svg>
