<svg width="60" height="60" viewBox="0 0 60 60" fill="none" xmlns="http://www.w3.org/2000/svg">
<path d="M49.6428 14.4385C49.3756 14.4385 49.1112 14.326 48.9256 14.1067C48.5918 13.711 48.6406 13.1195 49.0362 12.7857C50.5531 11.5051 51.6434 9.81759 52.189 7.9079C52.3324 7.40915 52.8546 7.12884 53.3478 7.2629C53.8456 7.4054 54.1343 7.92478 53.9927 8.42165C53.344 10.6913 52.0484 12.6957 50.2465 14.2173C50.0703 14.3663 49.8565 14.4385 49.6428 14.4385Z" fill="white"/>
<path d="M32.0948 26.1243C31.7807 26.1243 31.4742 25.9668 31.296 25.68C31.0242 25.2393 31.1592 24.6618 31.5998 24.389C37.0176 21.0328 42.7429 17.2209 49.101 12.734C49.5239 12.4368 50.1079 12.5371 50.4079 12.96C50.706 13.3828 50.6048 13.9678 50.182 14.2668C43.7939 18.7753 38.0385 22.6068 32.587 25.9837C32.4342 26.0793 32.2635 26.1243 32.0948 26.1243Z" fill="white"/>
<path d="M46.0979 28.4287C45.8307 28.4287 45.5654 28.3152 45.3798 28.0949C45.046 27.6993 45.0967 27.1077 45.4932 26.7749L47.6082 24.9955C48.0048 24.6599 48.5963 24.7124 48.9282 25.109C49.262 25.5046 49.2113 26.0962 48.8148 26.429L46.6998 28.2084C46.5245 28.3565 46.3098 28.4287 46.0979 28.4287Z" fill="white"/>
<path d="M46.0966 28.4288C45.6794 28.4288 45.2988 28.1485 45.1891 27.7257L42.6813 18.0066C42.5519 17.505 42.8547 16.9941 43.3553 16.8638C43.8569 16.7363 44.3678 17.0363 44.4981 17.5379L47.0059 27.2569C47.1353 27.7585 46.8325 28.2694 46.3319 28.3997C46.2531 28.4194 46.1744 28.4288 46.0966 28.4288Z" fill="white"/>
<path d="M48.2122 26.6494C47.6994 26.6494 47.2813 26.2378 47.2747 25.725L47.1285 14.6269C47.1219 14.1085 47.5363 13.6838 48.0529 13.6763H48.066C48.5788 13.6763 48.9969 14.0878 49.0035 14.6006L49.1497 25.6988C49.1563 26.2172 48.7419 26.6419 48.2254 26.6494C48.2207 26.6494 48.216 26.6494 48.2122 26.6494Z" fill="white"/>
<path d="M33.8516 30.4002C33.4044 30.4002 33.0087 30.0796 32.9291 29.6239L32.0825 24.7836C31.9934 24.2736 32.3347 23.788 32.8447 23.6989C33.3528 23.6127 33.8412 23.9521 33.9294 24.4611L34.7759 29.3014C34.865 29.8114 34.5237 30.2971 34.0137 30.3861C33.9603 30.3955 33.905 30.4002 33.8516 30.4002Z" fill="white"/>
<path d="M35.4105 29.3298C35.3374 29.3298 35.2642 29.3214 35.1902 29.3045C34.6877 29.1826 34.3774 28.6764 34.4983 28.1729L35.9861 21.991C36.1071 21.4885 36.6114 21.181 37.1177 21.2992C37.6202 21.421 37.9305 21.9273 37.8096 22.4307L36.3217 28.6126C36.2177 29.042 35.8333 29.3298 35.4105 29.3298Z" fill="white"/>
<path d="M33.8529 30.4003C33.5548 30.4003 33.2613 30.2588 33.0795 29.9935C32.786 29.5669 32.8948 28.9838 33.3213 28.6894L34.8776 27.6188C35.3042 27.3253 35.8873 27.435 36.1817 27.8606C36.4751 28.2872 36.3663 28.8703 35.9398 29.1647L34.3835 30.2353C34.2213 30.3469 34.0367 30.4003 33.8529 30.4003Z" fill="white"/>
<path d="M18.0047 46.9855C17.8632 46.9855 17.7178 46.9537 17.5828 46.8852C17.1207 46.6518 16.936 46.0874 17.1694 45.6252L18.765 42.4687C18.9975 42.0065 19.5619 41.8199 20.025 42.0552C20.4872 42.2887 20.6719 42.853 20.4385 43.3152L18.8428 46.4718C18.6778 46.798 18.3469 46.9855 18.0047 46.9855Z" fill="white"/>
<path d="M19.6013 43.829C19.0932 43.829 18.676 43.4231 18.6638 42.9131C18.6517 42.3956 19.0623 41.9662 19.5798 41.954L20.9138 41.9231L21.6048 41.4056C21.7267 41.3137 21.8692 41.2537 22.0201 41.2293L23.3551 41.0175L25.3988 40.08C25.4513 40.0565 25.5038 40.0378 25.5592 40.0228L27.211 39.6047L28.6604 38.3193L28.891 37.7493C28.3416 37.2609 27.7876 36.7772 27.2307 36.2962C26.8623 35.9784 26.7985 35.4318 27.0835 35.0372L27.4801 34.4887L27.4557 33.6122L26.7985 32.3222L26.0063 31.08C25.7288 30.6422 25.8591 30.0637 26.297 29.7862C26.7357 29.5087 27.3142 29.639 27.5907 30.0768L28.426 31.395L29.2229 32.9484C29.2857 33.0722 29.3204 33.2081 29.3251 33.3478L29.3654 34.7531C29.371 34.9593 29.3082 35.1618 29.1882 35.3287L29.1076 35.4393C29.6204 35.8875 30.1304 36.3365 30.6376 36.7912C30.931 37.0556 31.0276 37.4747 30.8795 37.8412L30.3179 39.2268C30.2635 39.3609 30.1792 39.48 30.0704 39.5756L28.2863 41.1581C28.1748 41.2575 28.0398 41.3287 27.8954 41.3662L26.1057 41.82L24.0226 42.7753C23.9448 42.8109 23.8623 42.8353 23.7779 42.8484L22.546 43.0444L21.8007 43.6022C21.6441 43.7193 21.4557 43.785 21.2607 43.7897L19.6266 43.8281C19.6163 43.829 19.6088 43.829 19.6013 43.829Z" fill="white"/>
<path d="M27.2838 49.1484C22.5072 49.1484 17.7494 47.5659 13.9751 44.5781L13.661 44.3277C13.2551 44.0062 13.1866 43.4165 13.5091 43.0115C13.8307 42.6056 14.4213 42.5362 14.8254 42.8596L15.1394 43.109C20.1176 47.0493 26.9772 48.3121 33.0429 46.3968C39.8454 44.2518 45.0476 38.3202 46.2972 31.2843C46.3882 30.7752 46.8691 30.4359 47.3838 30.5249C47.8938 30.6159 48.2332 31.1015 48.1432 31.6115C46.7735 39.3262 41.0679 45.8324 33.6072 48.1856C31.5532 48.8324 29.4157 49.1484 27.2838 49.1484Z" fill="white"/>
<path d="M11.5596 41.8567C11.2906 41.8567 11.0243 41.7423 10.8387 41.5201C5.14808 34.6951 4.30433 24.946 8.74058 17.2623C12.5946 10.5854 19.7881 6.51948 27.4803 6.60761C27.9987 6.61511 28.4121 7.04073 28.4046 7.55823C28.3971 8.07667 27.9471 8.49011 27.454 8.48261C27.3696 8.48167 27.2843 8.48073 27.2 8.48073C20.3712 8.48073 13.7834 12.2748 10.3634 18.1998C6.38183 25.096 7.16933 34.1926 12.2768 40.3192C12.6087 40.7176 12.5553 41.3082 12.1578 41.6392C11.9834 41.7854 11.7715 41.8567 11.5596 41.8567Z" fill="white"/>
<path d="M31.4514 23.8772C31.3445 23.8772 31.2357 23.8584 31.1279 23.8191L26.7273 22.2047C26.2407 22.0275 25.9923 21.4875 26.1704 21.0019C26.3476 20.5162 26.8857 20.265 27.3732 20.445L31.7739 22.0594C32.2604 22.2366 32.5089 22.7766 32.3307 23.2622C32.192 23.6419 31.8329 23.8772 31.4514 23.8772Z" fill="white"/>
<path d="M31.5785 26.2761C31.0376 26.2761 30.5051 26.038 30.116 25.5852C29.4795 24.8436 29.4701 23.8133 30.0945 23.0821C30.4292 22.6865 31.0217 22.6396 31.4154 22.9771C31.8101 23.3118 31.857 23.9043 31.5204 24.298C31.5092 24.3111 31.5063 24.3177 31.5063 24.3177C31.5101 24.3374 31.5579 24.3936 31.5879 24.4011C32.0285 24.1283 32.6126 24.2596 32.8845 24.6993C33.1573 25.1399 33.026 25.7118 32.5863 25.9836C32.2695 26.1805 31.9217 26.2761 31.5785 26.2761Z" fill="white"/>
<path d="M30.8076 24.6282C30.5929 24.6282 30.3764 24.555 30.2001 24.405C29.8064 24.0694 29.7586 23.4778 30.0942 23.0832C34.5698 17.8247 39.5939 12.9853 44.4501 8.30534L44.8982 7.87409C45.2704 7.51409 45.8629 7.52534 46.2239 7.89753C46.5839 8.27065 46.5726 8.86409 46.2004 9.22315L45.7514 9.65534C40.927 14.3035 35.9376 19.11 31.522 24.2982C31.3364 24.5157 31.0729 24.6282 30.8076 24.6282Z" fill="white"/>
<path d="M31.2612 20.7542C30.9153 20.7542 30.5816 20.5621 30.4194 20.2302L29.4753 18.3111L28.8781 17.3511C28.7009 17.0624 28.6925 16.7014 28.8575 16.4042L29.4819 15.2792C29.6337 15.0055 29.9122 14.8255 30.2253 14.7992L31.6194 14.6858L31.7637 14.5808L31.6522 14.3164C31.3681 14.4139 31.0541 14.3689 30.8094 14.1955L29.3366 13.1586L28.9062 13.2392C28.6156 13.2946 28.3128 13.2083 28.0953 13.0058L27.4194 12.3796C27.3087 12.2774 27.2244 12.1489 27.1728 12.0074L26.8362 11.0614L25.5809 10.0124L24.1297 9.80425C23.6778 9.73956 23.3375 9.35706 23.3262 8.9005L23.2972 7.78487C23.2841 7.26737 23.6928 6.83612 24.2103 6.823C24.6866 6.82394 25.1591 7.21769 25.1722 7.73612L25.1806 8.06144L26.1116 8.1955C26.2841 8.21987 26.4453 8.293 26.5784 8.40456L28.235 9.78831C28.3644 9.89519 28.4609 10.0358 28.5181 10.1933L28.8631 11.1636L29.0234 11.3117L29.3797 11.2452C29.63 11.1964 29.8859 11.2536 30.0941 11.3999L31.49 12.3842L31.8509 12.2521C32.3197 12.0796 32.8428 12.3083 33.0369 12.7696L33.7831 14.5424C33.9519 14.9436 33.8225 15.4086 33.47 15.6646L32.5109 16.3611C32.3722 16.4614 32.2081 16.5224 32.0356 16.5374L30.8806 16.6321L30.7653 16.8392L31.1178 17.4102L32.105 19.4071C32.3328 19.8711 32.1416 20.4336 31.6775 20.6624C31.5416 20.7224 31.4 20.7542 31.2612 20.7542Z" fill="white"/>
<path d="M28.3792 20.9204C27.887 20.9204 27.4726 20.536 27.4445 20.0373C27.4145 19.5207 27.8092 19.0773 28.3257 19.0473L34.4035 18.6948C34.9088 18.6667 35.3635 19.0595 35.3935 19.576C35.4235 20.0926 35.0288 20.536 34.5123 20.566L28.4345 20.9185C28.4157 20.9195 28.397 20.9204 28.3792 20.9204Z" fill="white"/>
<path d="M27.0507 22.2629C26.8125 22.2629 26.5735 22.172 26.3907 21.992C26.0232 21.6273 26.0194 21.0339 26.3841 20.6654L27.7135 19.3229C28.0791 18.9554 28.6707 18.9526 29.04 19.3164C29.4075 19.681 29.4113 20.2745 29.0466 20.6429L27.7172 21.9854C27.5325 22.1701 27.2916 22.2629 27.0507 22.2629Z" fill="white"/>
<path d="M38.5526 45.7032C38.4898 45.7032 38.4251 45.6966 38.3614 45.6835C37.8542 45.5785 37.5279 45.0816 37.6339 44.5744L37.8964 43.3069C37.9095 43.2479 37.9273 43.1898 37.9507 43.1326L38.4204 42.0188L38.2611 41.1404L37.6282 40.5376L36.4901 40.2835C36.1817 40.2151 35.9276 39.9938 35.817 39.6976L35.2817 38.2688C35.2386 38.1544 35.2189 38.0326 35.2226 37.9107L35.277 36.196C35.2854 35.9166 35.4176 35.6569 35.6379 35.4854L37.2073 34.2638L38.4504 32.9419C38.5986 32.7835 38.7973 32.6823 39.012 32.6541L40.152 32.5051L40.4867 32.1338C40.6957 31.9013 41.0079 31.7898 41.3182 31.8348L42.8764 32.0626C43.1126 32.0973 43.3264 32.2201 43.4754 32.4076L44.2282 33.3563L44.997 33.9929C45.0945 34.0726 45.1742 34.171 45.2323 34.2835L45.8595 35.4919C45.9129 35.5941 45.9467 35.7057 45.9589 35.8191L46.122 37.2657C46.1801 37.7804 45.8098 38.2444 45.2951 38.3026C44.772 38.3513 44.3154 37.9904 44.2582 37.4757L44.1157 36.2016L43.6564 35.3176L42.9589 34.7401C42.9073 34.6988 42.8614 34.651 42.822 34.6004L42.2389 33.8654L41.5442 33.7641L41.3136 34.0201C41.1645 34.186 40.9611 34.2929 40.7398 34.321L39.5895 34.4719L38.5254 35.6026C38.4926 35.6382 38.457 35.671 38.4186 35.7001L37.1389 36.6966L37.1051 37.786L37.3976 38.5669L38.2939 38.7676C38.4598 38.8041 38.6117 38.8857 38.7354 39.0029L39.7779 39.9948C39.9214 40.1316 40.0189 40.3116 40.0545 40.5066L40.3179 41.9607C40.3498 42.1398 40.3301 42.3244 40.2589 42.4923L39.7161 43.7794L39.4723 44.9569C39.3776 45.3994 38.9876 45.7032 38.5526 45.7032Z" fill="white"/>
<path d="M53.0929 9.10218C53.0076 9.10218 52.9204 9.09093 52.8361 9.06656C52.3383 8.92499 52.0486 8.40656 52.1911 7.90874C52.2708 7.62843 52.1264 7.41374 52.0598 7.33406C51.9933 7.25437 51.8161 7.07718 51.5254 7.10062C51.0192 7.14843 50.5542 6.76687 50.5073 6.25124C50.4604 5.73562 50.8411 5.27999 51.3567 5.23312C52.1639 5.16281 52.9729 5.49656 53.5036 6.13781C54.0351 6.77999 54.2189 7.63406 53.9939 8.42249C53.8767 8.83406 53.4998 9.10218 53.0929 9.10218Z" fill="white"/>
<path d="M45.5502 9.48557C45.2764 9.48557 45.0055 9.3665 44.8208 9.13775C44.4946 8.73463 44.5574 8.144 44.9596 7.81963C46.7952 6.33557 49.0068 5.44119 51.358 5.23213C51.8671 5.18713 52.3293 5.56775 52.3743 6.08338C52.4202 6.599 52.0396 7.05369 51.523 7.09963C49.5458 7.27588 47.683 8.02775 46.1389 9.2765C45.9646 9.41713 45.7574 9.48557 45.5502 9.48557Z" fill="white"/>
<path d="M44.1602 10.8243C44.0983 10.8243 44.0336 10.8177 43.9708 10.8046L33.0996 8.57053C32.5924 8.46647 32.2652 7.97053 32.3702 7.46334C32.4752 6.95615 32.9711 6.62897 33.4774 6.73397L44.3496 8.96897C44.8568 9.07303 45.1839 9.56897 45.0789 10.0762C44.9861 10.5196 44.5961 10.8243 44.1602 10.8243Z" fill="white"/>
<path d="M40.2133 14.6259C40.0783 14.6259 39.9424 14.5978 39.813 14.5359L30.7408 10.2412C30.273 10.02 30.0724 9.46028 30.2937 8.99247C30.5149 8.52465 31.0765 8.32309 31.5424 8.54528L40.6146 12.84C41.0824 13.0612 41.283 13.6209 41.0618 14.0887C40.9015 14.4281 40.5649 14.6259 40.2133 14.6259Z" fill="white"/>
<path d="M31.143 10.3314C30.8702 10.3314 30.5992 10.2132 30.4145 9.98448C30.0883 9.58229 30.1502 8.99167 30.5514 8.66636L32.6973 6.92542C33.1014 6.59823 33.6911 6.66104 34.0155 7.06229C34.3417 7.46448 34.2798 8.05511 33.8786 8.38042L31.7327 10.1214C31.5583 10.262 31.3492 10.3314 31.143 10.3314Z" fill="white"/>
<path d="M11.2861 54.7782C8.57671 54.7782 6.79827 53.7263 6.24984 51.7838C5.3864 48.7238 7.36358 45.2832 9.41015 42.3207C14.2908 35.2576 20.7267 29.5163 26.3798 24.8316C26.7792 24.4988 27.3698 24.556 27.6989 24.9554C28.0298 25.3538 27.9745 25.9454 27.5751 26.2744C22.0214 30.8776 15.7036 36.511 10.9523 43.3866C9.8639 44.9626 7.31484 48.6516 8.05546 51.2748C8.46702 52.7373 10.2792 52.9688 11.7239 52.8929C16.8098 52.6501 21.9033 49.9285 26.3976 47.5257L26.6133 47.4104C27.0698 47.1666 27.6389 47.3391 27.8826 47.7947C28.1273 48.2513 27.9539 48.8204 27.4983 49.0641L27.2817 49.1794C22.613 51.6741 17.3208 54.5026 11.8139 54.7651C11.6339 54.7735 11.4586 54.7782 11.2861 54.7782Z" fill="white"/>
<path d="M29.2891 29.4422C29.1372 29.4422 28.9835 29.4057 28.8401 29.3269C27.4769 28.5816 26.4672 27.2935 26.0697 25.7916C25.9366 25.291 26.2357 24.7782 26.7363 24.645C27.2351 24.5138 27.7507 24.811 27.8829 25.3116C28.1491 26.3175 28.826 27.1819 29.7391 27.6816C30.1929 27.93 30.3607 28.4991 30.1113 28.9528C29.9416 29.2669 29.621 29.4422 29.2891 29.4422Z" fill="white"/>
<path d="M14.989 52.7523C13.8546 52.7523 12.7352 52.5545 11.748 52.0023C10.3952 51.2335 9.83179 49.5779 10.4318 48.1492C12.0265 44.5173 14.6562 41.3992 17.2118 38.5163C20.0515 35.311 23.2455 32.4517 26.2718 29.7967C26.8118 29.3223 27.3705 28.8667 27.9293 28.4101L28.6915 27.7838C29.0899 27.451 29.6824 27.5082 30.0115 27.9067C30.3424 28.306 30.2871 28.8967 29.8887 29.2267L29.1143 29.8632C28.5734 30.3048 28.0324 30.7454 27.5084 31.2057C24.5252 33.8213 21.3827 36.6367 18.6143 39.7595C16.0559 42.647 13.6343 45.5176 12.154 48.8888C11.9271 49.4288 12.1455 50.072 12.6687 50.3692C14.2352 51.2457 16.5527 50.8267 18.3968 50.3645C21.334 49.6267 24.0705 48.4426 26.3609 47.3813C26.8296 47.161 27.3874 47.3673 27.6049 47.8379C27.8224 48.3076 27.619 48.8645 27.1484 49.082C24.7802 50.1798 21.9405 51.406 18.8524 52.1823C17.6759 52.4785 16.323 52.7523 14.989 52.7523Z" fill="white"/>
<path d="M23.3598 29.5313C22.9538 29.5313 22.5807 29.2669 22.4607 28.8582L21.9751 27.2072L20.6176 25.8591C20.4029 25.6454 20.3045 25.3416 20.3532 25.0435L20.521 24.0197L19.996 23.3344C19.8235 23.1094 19.7626 22.8179 19.8292 22.5422L20.4751 19.8947L20.0579 19.081C19.951 18.8729 19.9257 18.6319 19.9876 18.405L20.6917 15.8372C20.8004 15.4416 21.1538 15.1622 21.5645 15.1491L21.6517 15.1454L21.6488 13.7025L21.2776 11.6419L20.5548 10.68L19.382 10.8375L18.4229 11.4591C17.9963 11.7375 17.4263 11.6222 17.1385 11.2022L16.6904 10.5469C16.3979 10.1185 16.5085 9.53536 16.936 9.24286C17.3298 8.97661 17.8548 9.04599 18.1651 9.39286L18.5392 9.15005C18.6554 9.07411 18.7876 9.02536 18.9235 9.00755L20.8492 8.7488C21.1885 8.7038 21.5204 8.84349 21.7248 9.11536L22.9117 10.695C22.9998 10.8122 23.0588 10.9482 23.0851 11.0925L23.5098 13.455C23.5201 13.5094 23.5248 13.5638 23.5248 13.6191L23.5285 16.0529C23.5295 16.5591 23.1282 16.9744 22.6229 16.9913L22.3192 17.0025L21.8945 18.5532L22.3051 19.3538C22.4073 19.5544 22.4354 19.785 22.382 20.0035L21.7595 22.5554L22.2573 23.206C22.4148 23.4113 22.4795 23.6719 22.4382 23.9269L22.2835 24.8738L23.4695 26.0522C23.581 26.1629 23.6635 26.3016 23.7076 26.4525L24.2607 28.3341C24.407 28.831 24.1229 29.3522 23.626 29.4976C23.5351 29.5191 23.447 29.5313 23.3598 29.5313Z" fill="white"/>
</svg>
