<svg width="59" height="59" viewBox="0 0 59 59" fill="none" xmlns="http://www.w3.org/2000/svg">
<g id="hand 1" clip-path="url(#clip0_7_1678)">
<path id="Vector" d="M3.90869 50.9981C4.39557 50.9984 4.86285 50.8062 5.20853 50.4634L18.0226 37.6401L35.7134 38.2485C35.9616 38.2545 36.2062 38.3093 36.4332 38.4099C36.6602 38.5104 36.8651 38.6547 37.0364 38.8345C37.2076 39.0143 37.3417 39.226 37.4311 39.4577C37.5204 39.6893 37.5633 39.9363 37.5571 40.1845C37.5504 40.4309 37.4907 40.673 37.382 40.8943V40.9773C37.2195 41.2924 36.9717 41.5554 36.6669 41.7363C36.362 41.9173 36.0125 42.0088 35.6581 42.0006L26.6513 41.6871C26.1624 41.6712 25.6871 41.8502 25.3301 42.1848C24.9731 42.5193 24.7636 42.982 24.7477 43.4709C24.7318 43.9599 24.9108 44.4352 25.2453 44.7922C25.5799 45.1492 26.0425 45.3587 26.5315 45.3746L35.5106 45.6788H35.7226C36.6783 45.6799 37.6179 45.4334 38.45 44.9632C39.282 44.4931 39.9781 43.8154 40.4702 42.9962L50.8967 33.6945C51.1399 33.4855 51.4518 33.3739 51.7724 33.381C52.1767 33.3955 52.5589 33.5694 52.8353 33.8648C53.1117 34.1602 53.2599 34.5531 53.2474 34.9574C53.242 35.1634 53.1982 35.3667 53.1184 35.5566C53.0446 35.6673 52.9063 35.8332 52.8234 35.9346L38.2301 50.2974L17.7553 49.5968C17.5017 49.5921 17.2497 49.6378 17.014 49.7312C16.7782 49.8245 16.5633 49.9637 16.3817 50.1407L10.6384 55.884C10.3887 56.1459 10.2216 56.4755 10.1579 56.8318C10.0942 57.188 10.1368 57.5551 10.2803 57.8873C10.4238 58.2196 10.6619 58.5022 10.9649 58.7C11.2679 58.8979 11.6224 59.0022 11.9843 58.9999C12.2276 59.0001 12.4685 58.9522 12.6932 58.8588C12.9179 58.7655 13.1219 58.6286 13.2934 58.456L18.4374 53.312L38.9123 54.0034C39.1615 54.013 39.41 53.9704 39.6418 53.8784C39.8736 53.7863 40.0836 53.6467 40.2582 53.4687L55.4876 38.4974L55.6167 38.3499C55.8913 38.0273 56.138 37.6819 56.3542 37.3174C56.7589 36.5343 56.959 35.6615 56.9359 34.7803C56.9128 33.8991 56.6672 33.038 56.2219 32.2772C55.7767 31.5164 55.1462 30.8805 54.3892 30.4288C53.6322 29.9771 52.7733 29.7241 51.8923 29.6935C50.7195 29.6638 49.5727 30.0418 48.6473 30.7629L48.5274 30.8643L40.7007 37.7968C40.2745 36.8564 39.5936 36.054 38.735 35.4805C37.8764 34.9071 36.8744 34.5853 35.8424 34.5518L17.4049 33.9249C17.153 33.9161 16.902 33.9589 16.6673 34.0509C16.4327 34.1429 16.2194 34.282 16.0406 34.4596L2.59963 47.8545C2.34278 48.1128 2.16824 48.4415 2.09804 48.799C2.02783 49.1565 2.06511 49.5268 2.20516 49.8631C2.34521 50.1994 2.58176 50.4867 2.88495 50.6887C3.18814 50.8907 3.54437 50.9983 3.90869 50.9981Z" fill="white"/>
<path id="Vector_2" d="M28.191 30.6983C28.3625 30.8709 28.5665 31.0078 28.7911 31.1011C29.0158 31.1945 29.2567 31.2424 29.5 31.2422C29.9882 31.2402 30.4557 31.0446 30.7999 30.6983L44.4989 17.0085C45.4257 16.0837 46.161 14.9852 46.6627 13.7758C47.1644 12.5665 47.4226 11.2701 47.4226 9.96077C47.4226 8.65148 47.1644 7.35506 46.6627 6.14571C46.161 4.93636 45.4257 3.83784 44.4989 2.91304C42.6319 1.04687 40.1002 -0.00146484 37.4604 -0.00146484C34.8206 -0.00146484 32.2889 1.04687 30.4219 2.91304L29.5 3.83491L28.5781 2.91304C27.1847 1.52203 25.4101 0.575414 23.4787 0.192868C21.5473 -0.189679 19.5458 0.00902012 17.7273 0.763844C15.9088 1.51867 14.355 2.79572 13.2622 4.43356C12.1694 6.07139 11.5868 7.99646 11.588 9.96538C11.5823 11.2725 11.837 12.5676 12.3372 13.7753C12.8373 14.9829 13.5729 16.0789 14.5011 16.9993L28.191 30.6983ZM17.1008 5.53116C18.2777 4.35685 19.8724 3.69736 21.535 3.69736C23.1976 3.69736 24.7923 4.35685 25.9692 5.53116L28.191 7.7621C28.3622 7.93352 28.5655 8.06951 28.7894 8.1623C29.0132 8.25508 29.2531 8.30284 29.4954 8.30284C29.7377 8.30284 29.9776 8.25508 30.2015 8.1623C30.4253 8.06951 30.6286 7.93352 30.7999 7.7621L33.0308 5.53116C33.9081 4.65328 35.0262 4.05555 36.2435 3.8137C37.4607 3.57186 38.7224 3.69678 39.8686 4.17265C41.0149 4.64851 41.994 5.4539 42.6821 6.48678C43.3702 7.51965 43.7362 8.73352 43.7338 9.9746C43.7384 10.798 43.5776 11.614 43.2609 12.3742C42.9442 13.1343 42.478 13.8231 41.89 14.3996L29.5 26.7896L17.1008 14.3904C15.9265 13.2134 15.267 11.6187 15.267 9.95616C15.267 8.29358 15.9265 6.69888 17.1008 5.52194V5.53116Z" fill="white"/>
</g>
<defs>
<clipPath id="clip0_7_1678">
<rect width="59" height="59" fill="white"/>
</clipPath>
</defs>
</svg>
