<svg width="26" height="20" viewBox="0 0 26 20" fill="none" xmlns="http://www.w3.org/2000/svg">
<path d="M3.8488 12.8451C3.98905 12.9745 4.19521 13.0045 4.36508 12.9194L11.8028 9.24266L6.25494 13.1767C6.12478 13.2692 6.05135 13.4219 6.06065 13.5817L6.25026 16.8404C6.28777 17.4851 6.41059 18.0307 6.60563 18.4177C6.94076 19.0833 7.40765 19.1578 7.65602 19.1431C7.9565 19.1254 8.24517 18.9675 8.51343 18.6736L9.54688 17.5412L11.2213 18.5625C11.6394 18.8177 12.1323 18.9361 12.6467 18.9057C13.7086 18.8431 14.7711 18.1566 15.4209 17.1145L24.4929 2.55398C25.1181 1.5504 25.0148 0.944309 24.8184 0.612954C24.6886 0.393545 24.354 0.0323432 23.5742 0.0783477C23.3152 0.0936293 23.0241 0.152977 22.7076 0.254121L2.14192 6.83143C1.22434 7.12472 0.632369 7.68142 0.473842 8.39838C0.315768 9.11583 0.618646 9.86998 1.32723 10.5224L3.8488 12.8451ZM1.3757 8.59781C1.45986 8.21608 1.83143 7.90174 2.42211 7.71302L22.9882 1.13518C23.5413 0.9589 23.9711 0.993783 24.025 1.0856C24.0747 1.16932 24.073 1.48177 23.7101 2.06441L14.6386 16.625C14.145 17.4169 13.3612 17.9367 12.5933 17.982C12.2624 18.0015 11.9628 17.9312 11.7025 17.7722L9.70347 16.5527C9.62053 16.5025 9.52768 16.4806 9.43642 16.486C9.31982 16.4929 9.20622 16.5441 9.12278 16.6357L7.83283 18.0492C7.68326 18.2128 7.6032 18.2193 7.60273 18.2199C7.51265 18.1974 7.23155 17.8015 7.17246 16.7859L6.99777 13.7835L17.1102 6.6124C17.3066 6.47336 17.3636 6.20544 17.24 5.9981C17.1169 5.78937 16.8526 5.71372 16.6396 5.81992L4.24112 11.9493L1.95216 9.8409C1.49622 9.42116 1.29111 8.97956 1.3757 8.59781Z" fill="#22BE32"/>
</svg>
