<svg width="38" height="38" viewBox="0 0 38 38" fill="none" xmlns="http://www.w3.org/2000/svg">
<g clip-path="url(#clip0_884_1232)">
<path d="M19 38C29.4934 38 38 29.4934 38 19C38 8.50659 29.4934 0 19 0C8.50659 0 0 8.50659 0 19C0 29.4934 8.50659 38 19 38Z" fill="#3CA200"/>
<path d="M17.1688 20.8105C19.7784 23.42 22.336 24.4787 23.2572 23.5575L24.5221 22.2928C24.9406 21.8744 25.5081 21.6393 26.0999 21.6393C26.6917 21.6393 27.2592 21.8744 27.6776 22.2928L30.5175 25.1327C30.936 25.5511 31.171 26.1187 31.171 26.7104C31.171 27.3022 30.936 27.8697 30.5175 28.2882L28.3049 30.5008C26.2143 32.5914 20.031 29.8008 14.1048 23.8748C11.1432 20.9117 9.20072 18.1208 7.94524 15.4964C6.68976 12.8721 6.43533 10.7194 7.48004 9.67471L9.69265 7.4621C10.1111 7.04366 10.6786 6.80859 11.2704 6.80859C11.8622 6.80859 12.4297 7.04366 12.8481 7.4621L15.688 10.3011C16.1065 10.7196 16.3415 11.2871 16.3415 11.8789C16.3415 12.4706 16.1065 13.0381 15.688 13.4566L14.4222 14.7246C13.501 15.6449 14.5593 18.2021 17.1688 20.8105Z" fill="#EEEFEE"/>
</g>
<defs>
<clipPath id="clip0_884_1232">
<rect width="38" height="38" fill="white"/>
</clipPath>
</defs>
</svg>
