<svg width="18" height="14" viewBox="0 0 18 14" fill="none" xmlns="http://www.w3.org/2000/svg">
<path fill-rule="evenodd" clip-rule="evenodd" d="M17.6017 7.16152L0.103832 7.41586L0.0820312 5.91602L17.5799 5.66168L17.6017 7.16152Z" fill="black"/>
<path fill-rule="evenodd" clip-rule="evenodd" d="M16.8307 5.67246C13.3036 5.72373 10.4665 8.8674 10.5145 12.1749L10.5254 12.9249L12.0253 12.9031L12.0144 12.1531C11.9779 9.64191 14.1854 7.21107 16.8525 7.1723L17.602 7.16141L17.5802 5.66157L16.8307 5.67246Z" fill="black"/>
<path fill-rule="evenodd" clip-rule="evenodd" d="M16.8523 7.17258C13.3251 7.22385 10.3978 4.16393 10.3498 0.856366L10.3389 0.106445L11.8387 0.0846445L11.8496 0.834565C11.8861 3.34588 14.1633 5.7115 16.8305 5.67274L17.58 5.66184L17.6018 7.16168L16.8523 7.17258Z" fill="black"/>
</svg>
