<svg width="18" height="14" viewBox="0 0 18 14" fill="none" xmlns="http://www.w3.org/2000/svg">
<path fill-rule="evenodd" clip-rule="evenodd" d="M17.6017 7.1625L0.103832 7.41683L0.0820312 5.91699L17.5799 5.66265L17.6017 7.1625Z" fill="white"/>
<path fill-rule="evenodd" clip-rule="evenodd" d="M16.8302 5.67344C13.3031 5.72471 10.466 8.86837 10.5141 12.1759L10.525 12.9258L12.0248 12.904L12.0139 12.1541C11.9774 9.64289 14.1849 7.21205 16.852 7.17328L17.6015 7.16239L17.5797 5.66254L16.8302 5.67344Z" fill="white"/>
<path fill-rule="evenodd" clip-rule="evenodd" d="M16.8523 7.17355C13.3251 7.22482 10.3978 4.1649 10.3498 0.857343L10.3389 0.107422L11.8387 0.0856211L11.8496 0.835542C11.8861 3.34686 14.1633 5.71248 16.8305 5.67371L17.58 5.66282L17.6018 7.16266L16.8523 7.17355Z" fill="white"/>
</svg>
