<svg width="24" height="24" viewBox="0 0 24 24" fill="none" xmlns="http://www.w3.org/2000/svg">
<path fill-rule="evenodd" clip-rule="evenodd" d="M19.4996 6.23932L5.57916 18.9432L4.49023 17.75L18.4106 5.04612L19.4996 6.23932Z" fill="black"/>
<path fill-rule="evenodd" clip-rule="evenodd" d="M17.8138 5.59082C15.0078 8.1516 14.9668 12.7118 17.3682 15.3431L17.9126 15.9397L19.1058 14.8507L18.5614 14.2541C16.7381 12.2563 16.7809 8.72041 18.9027 6.78401L19.499 6.23984L18.4101 5.04665L17.8138 5.59082Z" fill="black"/>
<path fill-rule="evenodd" clip-rule="evenodd" d="M18.9032 6.78443C16.0972 9.34521 11.5523 8.97011 9.15091 6.33879L8.60645 5.74219L9.79964 4.65327L10.3441 5.24986C12.1674 7.24774 15.6925 7.52763 17.8143 5.59123L18.4106 5.04706L19.4995 6.24026L18.9032 6.78443Z" fill="black"/>
</svg>
