<svg width="37" height="36" viewBox="0 0 37 36" fill="none" xmlns="http://www.w3.org/2000/svg">
<path fill-rule="evenodd" clip-rule="evenodd" d="M30.0217 9.31117L8.64395 28.8207L6.97168 26.9883L28.3494 7.47876L30.0217 9.31117Z" fill="white"/>
<path fill-rule="evenodd" clip-rule="evenodd" d="M27.433 8.31574C23.1238 12.2484 23.0609 19.2515 26.7487 23.2924L27.5849 24.2086L29.4173 22.5364L28.5811 21.6202C25.7812 18.5521 25.8468 13.1219 29.1053 10.1482L30.021 9.31247L28.3488 7.48005L27.433 8.31574Z" fill="white"/>
<path fill-rule="evenodd" clip-rule="evenodd" d="M29.1063 10.1485C24.7971 14.0811 17.8174 13.505 14.1296 9.46406L13.2935 8.54785L15.1259 6.87558L15.962 7.79179C18.762 10.86 24.1755 11.2898 27.4341 8.31604L28.3498 7.48035L30.022 9.31277L29.1063 10.1485Z" fill="white"/>
</svg>
