<svg width="46" height="45" viewBox="0 0 46 45" fill="none" xmlns="http://www.w3.org/2000/svg">
<g clip-path="url(#clip0_1178_2010)">
<path fill-rule="evenodd" clip-rule="evenodd" d="M25.1337 0.155783C25.7922 0.232985 26.4408 0.339596 27.0784 0.470717C26.6124 2.65565 26.0092 4.78666 25.2613 6.85762C24.0045 6.43485 22.6852 6.13462 21.3156 5.97287C11.1792 4.78298 1.9514 11.6331 0.0214844 21.4794C0.0460069 20.9475 0.0889212 20.4133 0.151454 19.8765C1.60196 7.53651 12.7867 -1.29389 25.1337 0.155783ZM34.722 10.3109C36.0181 10.3721 37.0554 11.4088 37.1167 12.7041C37.178 11.4088 38.2153 10.3721 39.5113 10.3109C38.2153 10.2496 37.178 9.21289 37.1167 7.91762C37.0554 9.21289 36.0181 10.2496 34.722 10.3109ZM34.185 3.25978C41.4829 7.68846 45.9264 16.0949 44.8658 25.1238C43.4165 37.4638 32.2306 46.293 19.8835 44.8445C19.3464 44.782 18.8167 44.6987 18.2932 44.5994C28.3241 45.0038 37.1289 37.6194 38.3195 27.4876C39.0944 20.8887 36.457 14.6758 31.8014 10.6123C32.8068 8.22642 33.621 5.77067 34.185 3.25856V3.25978Z" fill="#42C652"/>
<path fill-rule="evenodd" clip-rule="evenodd" d="M28.9879 0.948242C27.3621 8.53974 24.1606 15.3286 19.3837 21.3136C17.9135 19.9423 16.5243 19.4583 15.2148 19.8602C16.3833 23.6014 19.0931 26.6417 22.6304 28.2421C22.9971 28.4075 23.371 28.5583 23.7548 28.6918C23.9706 27.3475 23.2484 25.7398 21.587 23.8673C27.3523 16.3677 30.9522 9.17206 32.3892 2.27783C31.2955 1.74354 30.1576 1.29871 28.9891 0.948242H28.9879Z" fill="#0C2B6A"/>
<path fill-rule="evenodd" clip-rule="evenodd" d="M18.4726 26.8737C16.5317 25.1495 15.0383 22.9377 14.1739 20.4243C9.03026 22.6987 4.47521 23.7881 0.507469 23.6925C0.392213 24.8653 0.389761 26.0257 0.491529 27.1617C3.94062 27.4607 7.39706 26.6691 10.3729 24.9008C7.71095 27.2928 4.2729 28.6371 0.69384 28.6861C0.901055 29.8625 1.22107 31.0058 1.64409 32.1014C4.91661 31.3563 6.88822 31.2669 9.49741 28.8944C7.92062 31.4458 5.3666 33.2398 2.43003 33.8574C2.67158 34.3292 2.93274 34.79 3.21353 35.2385C3.69417 36.0068 4.23121 36.7396 4.81975 37.4295C7.6521 36.7372 10.1497 35.0669 11.8687 32.7129C10.8744 35.4272 8.84757 37.6342 6.23715 38.8596L6.21017 38.889C6.50444 39.1659 6.8073 39.4331 7.11996 39.6916C7.42036 39.9392 7.72934 40.1781 8.04568 40.4061C12.483 38.5214 16.2754 35.388 18.9594 31.3845C17.0577 35.5215 14.1959 39.1463 10.612 41.9562C12.0527 42.6731 13.6098 43.2123 15.2577 43.537C19.1863 37.9822 21.8727 33.3966 23.3183 29.7792C22.4208 29.4471 21.5649 29.0329 20.7581 28.5489C19.944 28.0599 19.1801 27.4975 18.4751 26.8713L18.4726 26.8737ZM12.0527 26.3468C12.7086 26.3774 13.2334 26.9019 13.2641 27.5575C13.2947 26.9019 13.8195 26.3774 14.4755 26.3468C13.8195 26.3162 13.2947 25.7917 13.2641 25.1361C13.2334 25.7917 12.7086 26.3162 12.0527 26.3468Z" fill="#42C652"/>
<path fill-rule="evenodd" clip-rule="evenodd" d="M24.9605 32.296C26.8512 32.3854 28.3642 33.8964 28.4525 35.786C28.5408 33.8964 30.0538 32.3854 31.9445 32.296C30.0538 32.2065 28.542 30.6956 28.4525 28.806C28.3642 30.6956 26.8512 32.2065 24.9605 32.296ZM4.29297 19.1656C4.94895 19.1962 5.47373 19.7207 5.50438 20.3763C5.53503 19.7207 6.05981 19.1962 6.71579 19.1656C6.05981 19.1349 5.53503 18.6105 5.50438 17.9549C5.47373 18.6105 4.94895 19.1349 4.29297 19.1656ZM12.8366 13.3264C14.7273 13.4159 16.2403 14.9268 16.3286 16.8164C16.4181 14.9268 17.9299 13.4159 19.8206 13.3264C17.9299 13.2382 16.4181 11.726 16.3286 9.83643C16.2403 11.726 14.7273 13.237 12.8366 13.3264ZM30.3959 20.6018C31.0519 20.6324 31.5767 21.1569 31.6073 21.8125C31.638 21.1569 32.1628 20.6324 32.8188 20.6018C32.1628 20.5711 31.638 20.0467 31.6073 19.3911C31.5767 20.0467 31.0519 20.5711 30.3959 20.6018Z" fill="#42C652"/>
</g>
<defs>
<clipPath id="clip0_1178_2010">
<rect width="45" height="45" fill="white" transform="translate(0.0214844)"/>
</clipPath>
</defs>
</svg>
