<svg width="125" height="125" viewBox="0 0 125 125" fill="none" xmlns="http://www.w3.org/2000/svg">
<path d="M81.5255 79.5809C80.5168 79.5735 78.4734 79.566 76.3955 79.5586C74.2107 79.5512 71.9869 79.5438 70.8899 79.5352C70.8862 79.5352 70.8825 79.5352 70.8794 79.5352C70.1851 79.5352 69.6199 80.0948 69.6143 80.7903C69.6087 81.4883 70.1702 82.0591 70.8689 82.0653C71.969 82.0739 74.1971 82.0813 76.3868 82.0888C78.4605 82.0962 80.4995 82.1036 81.5058 82.111H81.5157C82.21 82.111 82.7752 81.5513 82.7807 80.8558C82.7863 80.1566 82.2242 79.5858 81.5255 79.5809Z" fill="#42C652"/>
<path d="M112.329 67.6763C112.751 66.8325 113.326 65.5452 113.453 64.1195C113.589 62.6024 113.172 61.1422 112.311 60.1131C110.677 58.166 107.921 58.0437 105.918 58.785C104.895 59.1636 104.003 59.7361 103.193 60.3739C103.191 59.1859 103.19 57.9539 103.188 56.6924C107.117 54.6887 110.356 51.4491 112.329 47.5007C112.751 46.6569 113.326 45.3709 113.453 43.9427C113.589 42.4244 113.172 40.9654 112.311 39.9375C110.679 37.9893 107.925 37.867 105.918 38.6095C104.891 38.9898 103.996 39.5657 103.183 40.2069C103.183 38.9637 103.184 37.732 103.185 36.5174C107.115 34.515 110.355 31.2745 112.329 27.324C112.751 26.4802 113.326 25.1929 113.453 23.7672C113.589 22.2489 113.172 20.7886 112.311 19.762C110.679 17.8138 107.925 17.6915 105.918 18.4339C104.905 18.8087 104.019 19.3738 103.214 20.0048C103.225 17.1049 103.238 15.0489 103.254 14.2978C103.335 10.867 103.251 7.56724 101.351 4.89875C100.104 3.14694 98.0726 1.83493 95.6332 1.2061C93.58 0.673639 91.4915 0.650166 89.3752 0.626693C86.8309 0.606927 81.6255 0.589631 76.3793 0.572335C71.0646 0.555039 65.7084 0.537744 63.0393 0.516742C60.8693 0.496975 58.1595 0.478444 55.9666 1.93129C54.2636 3.0444 53.0146 4.99882 52.4481 7.43752C51.9756 9.52043 52.0306 11.6651 52.0794 13.5541C52.1164 15.2175 52.1428 20.5385 52.1587 27.4234C50.5292 24.6865 48.5464 23.9975 46.9746 23.4608C46.7109 23.3706 46.4521 23.2829 46.2013 23.1853C43.6118 22.1809 40.8748 23.4645 39.3108 25.183C37.7202 26.9299 36.9802 29.1734 36.4119 31.1402C33.8805 39.8943 32.9953 49.0845 32.1398 57.9709C31.91 60.354 31.6808 62.7358 31.4208 65.1103C30.8875 69.9812 30.161 75.1971 28.9474 80.3863C27.7758 79.6681 26.3379 78.9993 24.7675 79.0556C23.3863 79.0989 21.968 79.7104 20.7759 80.7791C19.8048 81.6463 19.0988 82.6816 18.3773 83.7391C17.5422 84.9733 16.6941 86.2853 15.8385 87.6084C14.9713 88.9513 14.0966 90.3053 13.2182 91.6013C12.5041 92.6588 11.5257 94.1054 11.5226 95.7992C11.5115 97.1285 12.1088 98.501 13.2096 99.6697C14.1114 100.617 15.2072 101.309 16.1721 101.917C19.0487 103.74 43.7941 120.216 46.6022 122.178C47.5349 122.835 48.5924 123.579 49.8284 124.049C50.608 124.342 51.3869 124.488 52.1257 124.488C52.807 124.488 53.4544 124.363 54.0356 124.115C55.6083 123.453 56.5639 121.992 57.2613 120.926C58.1063 119.636 58.9507 118.29 59.7883 116.954C60.6377 115.6 61.4802 114.256 62.3098 112.995C62.3111 112.992 62.3395 112.949 62.3401 112.948C63.0035 111.928 63.6898 110.874 64.1178 109.638C64.6441 108.126 64.6614 106.582 64.1673 105.288C63.6414 103.918 62.6002 102.901 61.5681 102.122C66.6208 96.1023 73.3005 91.459 80.8033 88.9785C80.8134 88.9751 80.8198 88.9671 80.8297 88.9635C84.3946 88.9512 87.5604 88.9396 89.3728 88.9291C89.3746 88.9291 89.4698 88.9278 89.4722 88.9278C91.4915 88.9056 93.58 88.8821 95.6314 88.3509C98.0726 87.7208 100.104 86.4088 101.351 84.6558C102.959 82.3897 103.263 79.6783 103.27 76.8242C107.161 74.8185 110.37 71.5979 112.329 67.6763ZM106.796 40.9815C107.97 40.5503 109.572 40.6084 110.372 41.5633C110.805 42.0797 111.009 42.8642 110.933 43.7179C110.865 44.4888 110.597 45.3066 110.066 46.3691C108.529 49.4448 106.118 52.0328 103.186 53.8075C103.183 50.4921 103.182 47.032 103.182 43.5834C104.291 42.5266 105.444 41.483 106.796 40.9815ZM106.796 20.8059C107.97 20.3748 109.572 20.4328 110.372 21.3878C110.805 21.9042 111.009 22.6887 110.933 23.5424C110.865 24.312 110.597 25.1299 110.066 26.1936C108.529 29.2697 106.119 31.8567 103.187 33.6301C103.191 29.8677 103.197 26.3634 103.204 23.3858C104.307 22.3363 105.455 21.3029 106.796 20.8059ZM53.8942 110.527C53.7849 111.69 52.8917 112.771 51.7699 113.097C50.2738 113.53 49.0551 112.64 48.4701 111.741C47.8685 110.817 47.5775 109.411 48.5646 108.237C49.1582 107.533 49.918 107.272 50.6481 107.272C51.112 107.272 51.5648 107.377 51.954 107.541C52.9392 107.953 54.0387 108.984 53.8942 110.527ZM39.3633 105.901C39.1162 106.149 38.7913 106.274 38.4664 106.274C38.1439 106.274 37.8208 106.152 37.5744 105.906L37.2112 105.543C36.7182 105.047 36.7207 104.247 37.2161 103.754C37.7103 103.26 38.5121 103.264 39.005 103.759L39.3583 104.112C39.8537 104.605 39.8562 105.406 39.3633 105.901ZM33.5253 99.0557C34.0837 99.4758 34.1968 100.269 33.7773 100.827C33.5284 101.158 33.1491 101.333 32.7643 101.333C32.4999 101.333 32.2337 101.25 32.0058 101.079L21.1156 92.9009C20.5572 92.4809 20.4441 91.6877 20.8636 91.1293C21.2836 90.5709 22.0755 90.4585 22.6352 90.8773L33.5253 99.0557ZM59.4615 100.711C55.5487 98.1581 35.9573 85.1152 31.1926 81.8928C32.57 76.28 33.3612 70.634 33.9361 65.3846C34.1974 63.0002 34.4278 60.6072 34.6582 58.213C35.5032 49.4416 36.3767 40.3712 38.8419 31.8431C39.3318 30.1506 39.9569 28.232 41.1818 26.8854C42.1331 25.8415 43.8237 24.9804 45.2852 25.5437C45.5681 25.6537 45.8597 25.7538 46.1574 25.8563C48.186 26.5481 50.1021 27.2029 51.4691 32.53C51.913 34.2588 52.1002 36.3592 52.1745 38.6011C52.1765 41.5179 52.1771 44.5021 52.1763 47.46C52.1762 47.5115 52.1751 47.5653 52.1751 47.6169C52.1751 47.6187 52.1762 47.6203 52.1762 47.6221C52.1722 60.7777 52.1399 73.2775 52.0794 75.998C52.0306 77.8907 51.9756 80.0353 52.4494 82.1256C53.0152 84.5582 54.2642 86.5114 55.9604 87.6208C57.9235 88.9217 60.2936 89.044 62.3284 89.044C62.5705 89.044 62.8083 89.0415 63.0393 89.0403C65.3421 89.022 69.6457 89.0043 74.1965 88.9874C68.5334 91.8168 63.4988 95.8446 59.4615 100.711ZM99.2888 83.1893C98.387 84.4569 96.8637 85.4193 94.9982 85.9011C93.2433 86.3557 91.3982 86.3767 89.4444 86.3977C89.4438 86.3977 89.3709 86.3989 89.3542 86.3989C87.2349 86.4113 83.2723 86.4249 78.9786 86.4397C72.8874 86.4619 66.1297 86.4854 63.0202 86.5101C61.0892 86.5163 58.9112 86.5398 57.3515 85.507C56.197 84.7521 55.331 83.3475 54.9153 81.5598C54.5131 79.7845 54.5638 77.8066 54.6083 76.0585C54.6691 73.3274 54.7015 60.7731 54.7055 47.5727C54.7059 46.5946 54.7165 45.597 54.7275 44.595C54.7496 42.5788 54.7673 40.5362 54.7038 38.5721C54.6956 26.6819 54.6638 15.9894 54.6083 13.4935C54.5638 11.7491 54.5131 9.77122 54.914 8.00458C55.331 6.20829 56.1964 4.80362 57.3577 4.04508C58.6814 3.16794 60.3881 3.0444 62.4624 3.0444C62.6452 3.0444 62.8312 3.04563 63.0196 3.04687C65.6912 3.06787 71.0522 3.08516 76.3713 3.10246C81.6125 3.11976 86.8136 3.13705 89.4444 3.15805C91.3982 3.17906 93.2433 3.20006 95.0001 3.65593C96.8637 4.1365 98.387 5.09889 99.2894 6.36642C100.739 8.40115 100.795 11.2512 100.724 14.2409C100.629 18.8083 100.629 70.7475 100.725 75.3173C100.795 78.3008 100.739 81.1472 99.2888 83.1893ZM103.238 73.9497C103.221 71.9707 103.208 68.3111 103.199 63.7432C104.302 62.692 105.451 61.6559 106.796 61.157C107.968 60.7246 109.574 60.7851 110.372 61.7376C110.805 62.2553 111.009 63.041 110.933 63.8947C110.865 64.6643 110.597 65.4822 110.066 66.5459C108.539 69.6038 106.146 72.177 103.238 73.9497Z" fill="#42C652"/>
<path d="M70.3095 9.23276C71.3738 9.24018 73.4963 9.24759 75.6169 9.255C77.7622 9.26241 79.905 9.26859 80.9452 9.27724H80.9551C81.6494 9.27724 82.2146 8.71759 82.2202 8.02206C82.2257 7.32281 81.6636 6.75205 80.965 6.74711C79.9223 6.73846 77.7751 6.73229 75.6255 6.72487C73.5093 6.71746 71.3911 6.71005 70.3281 6.70264C70.325 6.70264 70.3219 6.70264 70.3188 6.70264C69.6245 6.70264 69.0593 7.26228 69.0537 7.95782C69.0488 8.65706 69.6109 9.22782 70.3095 9.23276Z" fill="#42C652"/>
<path d="M85.1655 9.27329H86.286C86.9846 9.27329 87.551 8.70747 87.551 8.00823C87.551 7.30898 86.9846 6.74316 86.286 6.74316H85.1655C84.4668 6.74316 83.9004 7.30898 83.9004 8.00823C83.9004 8.70747 84.4668 9.27329 85.1655 9.27329Z" fill="#42C652"/>
<path d="M83.6001 27.2671C76.7306 24.3936 69.3749 25.9996 64.862 31.3638C60.2854 36.8033 59.9876 44.4048 64.1028 50.7276C67.3797 55.7632 72.5079 58.5935 77.9092 58.5935C79.3707 58.5935 80.8525 58.386 82.3227 57.9585C88.6109 56.1338 93.429 50.3064 94.04 43.7858C94.7052 36.6847 90.6074 30.2 83.6001 27.2671ZM75.0449 48.877C75.0072 48.8807 74.9695 48.8819 74.9318 48.8819C74.631 48.8819 74.3382 48.7744 74.1078 48.5768C73.5865 48.1296 72.8415 47.4241 72.0965 46.7175C71.3806 46.038 70.6647 45.3585 70.1644 44.9286C69.6338 44.474 69.5726 43.6759 70.0272 43.1459C70.4825 42.6147 71.2824 42.5541 71.8112 43.0088C72.3356 43.4585 73.0873 44.1701 73.8379 44.8817C74.1652 45.1917 74.4932 45.5031 74.7996 45.7897C76.0066 44.348 77.2649 42.9285 78.4886 41.546C79.9859 39.8548 81.5339 38.1067 82.9583 36.3536C83.3987 35.8125 84.1962 35.731 84.7379 36.1695C85.2796 36.6106 85.3624 37.4074 84.9214 37.9498C83.4636 39.7436 81.8977 41.5127 80.3831 43.2225C78.8858 44.9138 77.3378 46.6619 75.9134 48.4149C75.6984 48.6793 75.3852 48.8461 75.0449 48.877Z" fill="#42C652"/>
<path d="M29.8472 31.0103C29.1696 30.8423 28.4833 31.2599 28.3171 31.9381C26.4875 39.4012 25.4411 47.0818 25.2076 54.7661C25.1866 55.4641 25.7351 56.0472 26.4338 56.0694H26.4727C27.1534 56.0694 27.7155 55.5283 27.7365 54.8427C27.9644 47.3351 28.9867 39.8312 30.7744 32.541C30.9406 31.8628 30.5254 31.1771 29.8472 31.0103Z" fill="#42C652"/>
<path d="M31.2454 28.7679C31.4078 28.8384 31.5771 28.8705 31.7432 28.8705C32.2337 28.8705 32.7007 28.5839 32.9064 28.1045L33.5754 26.5442C33.8509 25.9018 33.5537 25.1581 32.9113 24.8826C32.2708 24.6058 31.5258 24.9048 31.2503 25.546L30.5813 27.1063C30.3058 27.7487 30.603 28.4924 31.2454 28.7679Z" fill="#42C652"/>
<path d="M83.4997 94.8489C83.2384 94.2003 82.5009 93.8878 81.8523 94.1509C77.6124 95.8681 73.8326 98.6416 70.9201 102.17C70.4754 102.709 70.552 103.507 71.0912 103.951C71.3266 104.145 71.612 104.241 71.8955 104.241C72.2599 104.241 72.6219 104.084 72.8721 103.781C75.5171 100.575 78.9509 98.0561 82.8023 96.4957C83.4497 96.2338 83.7623 95.4963 83.4997 94.8489Z" fill="#42C652"/>
<path d="M87.6203 94.314L88.5116 93.8619C89.1343 93.5456 89.3826 92.7834 89.0663 92.1607C88.7501 91.5381 87.9897 91.2922 87.3652 91.606L86.4788 92.0557C85.8555 92.3707 85.6053 93.1318 85.9204 93.7556C86.1434 94.1954 86.5881 94.4499 87.0508 94.4499C87.2423 94.4499 87.4368 94.4067 87.6203 94.314Z" fill="#42C652"/>
</svg>
