<svg width="90" height="94" viewBox="0 0 90 94" fill="none" xmlns="http://www.w3.org/2000/svg">
<g clip-path="url(#clip0_857_1935)">
<path d="M84.3747 57.3566V52.7244C84.3747 51.7256 83.9796 50.7677 83.2763 50.0615C82.5731 49.3552 81.6192 48.9584 80.6247 48.9584C80.966 41.6905 79.2982 34.4695 75.8059 28.0946C77.648 26.8054 79.0638 24.9922 79.8712 22.8882C80.6786 20.7843 80.8407 18.4858 80.3365 16.2885C79.8324 14.0913 78.6852 12.0958 77.0424 10.5588C75.3996 9.02179 73.3365 8.0136 71.1184 7.66392C70.6954 5.39229 69.4553 3.35624 67.6341 1.94351C65.813 0.530786 63.5381 -0.159928 61.2426 0.00290595C58.9471 0.16574 56.7915 1.17075 55.1862 2.82654C53.5809 4.48233 52.638 6.67324 52.5372 8.98203C51.7497 9.26448 48.3372 7.53211 41.2872 7.53211C34.9397 7.53334 28.6866 9.07567 23.0607 12.0277C17.4349 14.9797 12.6031 19.2538 8.977 24.4859C5.35094 29.718 3.03814 35.7529 2.23569 42.0764C1.43325 48.3998 2.16494 54.8244 4.36842 60.8026C3.03753 61.8481 1.95824 63.1812 1.21069 64.7031C0.46314 66.2249 0.0665343 67.8963 0.0503226 69.5931C0.0341108 71.2899 0.398709 72.9687 1.11705 74.5046C1.83538 76.0406 2.889 77.3943 4.19968 78.4652C4.7719 80.4433 5.87168 82.2266 7.38011 83.6223C8.88854 85.018 10.7482 85.973 12.758 86.384C14.7678 86.7951 16.8513 86.6465 18.7831 85.9544C20.7149 85.2623 22.4215 84.053 23.7184 82.4572C30.7699 85.9789 38.7108 87.2961 46.5154 86.2388C54.32 85.1814 61.6295 81.798 67.4997 76.5257V86.6187C67.4997 87.6175 67.8948 88.5754 68.598 89.2817C69.3013 89.9879 70.2551 90.3847 71.2497 90.3847H86.2497C87.2442 90.3847 88.1981 89.9879 88.9013 89.2817C89.6046 88.5754 89.9997 87.6175 89.9997 86.6187V64.1543C89.9997 60.5201 87.3184 59.3338 84.3747 57.3566ZM71.2497 69.6716H86.2497V79.0866H71.2497V69.6716ZM86.2497 65.9055H71.2497C71.2497 62.5914 70.8372 63.42 75.5622 60.2565H81.9372C86.8309 63.5329 86.2497 62.6479 86.2497 65.9055ZM80.6247 56.4905H76.8747V52.7244H80.6247V56.4905ZM55.9497 11.5053C56.3208 10.8757 56.4286 10.1243 56.2497 9.41512C56.2497 7.91691 56.8423 6.48005 57.8972 5.42065C58.9521 4.36125 60.3828 3.76608 61.8747 3.76608C63.3665 3.76608 64.7973 4.36125 65.8521 5.42065C66.907 6.48005 67.4997 7.91691 67.4997 9.41512C67.4997 9.91453 67.6972 10.3935 68.0488 10.7466C68.4005 11.0997 68.8774 11.2981 69.3747 11.2981C71.214 11.3112 72.9845 12.0027 74.3494 13.2411C75.7142 14.4795 76.5783 16.1784 76.7774 18.0149C76.9765 19.8513 76.4966 21.6972 75.429 23.2015C74.3615 24.7058 72.7807 25.7637 70.9872 26.1739C70.532 26.2758 70.1308 26.5443 69.8622 26.9271C68.9797 28.1919 67.7314 29.1537 66.2864 29.6822C64.8414 30.2107 63.2695 30.2803 61.7838 29.8816C60.2981 29.4829 58.9703 28.6351 57.9804 27.4532C56.9905 26.2713 56.3863 24.8124 56.2497 23.2741C56.2112 22.8502 56.0309 22.4518 55.738 22.144C55.4452 21.8363 55.0571 21.6372 54.6372 21.5794C53.5151 21.4354 52.4838 20.8856 51.7363 20.0329C50.9889 19.1803 50.5765 18.0832 50.5765 16.9472C50.5765 15.8112 50.9889 14.7141 51.7363 13.8614C52.4838 13.0088 53.5151 12.4589 54.6372 12.315C54.8986 12.2745 55.1493 12.182 55.3747 12.043C55.6001 11.904 55.7956 11.7212 55.9497 11.5053ZM24.8059 58.3735C24.2707 56.8276 23.3001 55.4709 22.0121 54.4681C20.724 53.4654 19.1738 52.8596 17.5497 52.7244C16.4673 48.1168 16.7385 43.2928 18.3304 38.8368C19.9224 34.3808 22.7667 30.484 26.519 27.6184C30.2713 24.7528 34.7705 23.0413 39.4716 22.6914C44.1727 22.3415 48.8739 23.368 53.0059 25.6467C53.5492 27.6606 54.6434 29.4813 56.1646 30.9024C57.6857 32.3236 59.5729 33.2883 61.6122 33.6872C74.2122 52.9692 55.3872 77.7497 33.4872 70.2176C33.8511 68.8534 33.9048 67.4243 33.6442 66.0364C33.3836 64.6485 32.8154 63.3372 31.9817 62.1997C31.148 61.0623 30.0701 60.1277 28.828 59.4654C27.5858 58.8031 26.2112 58.4299 24.8059 58.3735ZM48.4497 12.0513C47.6726 13.1231 47.1616 14.3657 46.9594 15.6759C46.7572 16.986 46.8696 18.3257 47.2872 19.5834C42.6551 18.5579 37.8399 18.7255 33.2897 20.0708C28.7394 21.4161 24.6019 23.8952 21.2619 27.2777C17.9219 30.6601 15.488 34.8359 14.1866 39.4167C12.8852 43.9975 12.7585 48.8345 13.8184 53.4776C12.6472 53.9432 11.5937 54.6646 10.7343 55.5895C9.87496 56.5145 9.2312 57.6198 8.84967 58.8254C8.46253 58.9247 8.08077 59.0442 7.70593 59.1832C5.56578 53.2006 5.0515 46.7534 6.21599 40.505C7.38048 34.2565 10.1817 28.4325 14.3314 23.6322C18.4811 18.8319 23.8294 15.2286 29.8261 13.1932C35.8227 11.1577 42.251 10.7636 48.4497 12.0513ZM14.9997 82.8527C13.2928 82.8499 11.6379 82.2625 10.3083 81.1875C8.97879 80.1124 8.05416 78.6141 7.68717 76.94C7.58579 76.4828 7.31839 76.08 6.93718 75.8102C5.67776 74.9239 4.72006 73.6703 4.19384 72.2191C3.66763 70.7679 3.59833 69.1893 3.99533 67.6973C4.39234 66.2052 5.23646 64.8718 6.41333 63.8777C7.5902 62.8835 9.04292 62.2767 10.5747 62.1395C10.9968 62.1009 11.3935 61.9198 11.6999 61.6257C12.0064 61.3316 12.2046 60.9419 12.2622 60.5201C12.4055 59.3933 12.953 58.3575 13.8021 57.6069C14.6511 56.8562 15.7435 56.4421 16.8747 56.4421C18.0059 56.4421 19.0983 56.8562 19.9473 57.6069C20.7963 58.3575 21.3438 59.3933 21.4872 60.5201C21.587 61.023 21.8757 61.468 22.2934 61.7629C22.5986 61.9602 22.9395 62.095 23.2967 62.1596C23.6538 62.2243 24.0202 62.2174 24.3747 62.1395C25.8665 62.1395 27.2973 62.7347 28.3522 63.7941C29.407 64.8535 29.9997 66.2903 29.9997 67.7885C29.9997 69.2868 29.407 70.7236 28.3522 71.783C27.2973 72.8424 25.8665 73.4376 24.3747 73.4376C23.8774 73.4376 23.4005 73.636 23.0489 73.9891C22.6972 74.3422 22.4997 74.8212 22.4997 75.3206C22.4997 77.3182 21.7095 79.234 20.303 80.6466C18.8965 82.0591 16.9888 82.8527 14.9997 82.8527ZM25.5559 79.0866C25.8113 78.3908 25.9997 77.672 26.1184 76.94C28.3478 76.5274 30.3492 75.3081 31.7434 73.5129C56.2497 82.4761 78.1309 56.1515 65.9622 33.6495C68.4915 33.1376 70.7687 31.7681 72.4122 29.7705C75.6587 35.6209 77.2049 42.269 76.8747 48.9584C75.8801 48.9584 74.9263 49.3552 74.223 50.0615C73.5198 50.7677 73.1247 51.7256 73.1247 52.7244V57.3566C66.9934 61.4616 67.4997 60.313 67.4997 71.1968C62.3153 76.9144 55.4211 80.7848 47.8557 82.2249C40.2904 83.6649 32.464 82.5965 25.5559 79.1808V79.0866ZM71.2497 86.6187V82.8527H86.2497V86.6187H71.2497Z" fill="white"/>
</g>
<defs>
<clipPath id="clip0_857_1935">
<rect width="90" height="94" fill="white"/>
</clipPath>
</defs>
</svg>
