<svg width="90" height="112" viewBox="0 0 90 112" fill="none" xmlns="http://www.w3.org/2000/svg">
<g clip-path="url(#clip0_857_1921)">
<path d="M20.7622 34.8044C21.8699 31.5159 23.7285 28.5279 26.192 26.0753C28.6555 23.6228 31.6568 21.7724 34.96 20.6696C35.4667 20.5021 35.9075 20.18 36.22 19.749C36.5324 19.318 36.7006 18.8 36.7006 18.2684C36.7006 17.7369 36.5324 17.2189 36.22 16.7879C35.9075 16.3569 35.4667 16.0348 34.96 15.8673C31.6568 14.7645 28.6555 12.9142 26.192 10.4616C23.7285 8.0091 21.8698 5.02117 20.7622 1.73269C20.5939 1.22827 20.2703 0.789416 19.8374 0.4784C19.4044 0.167383 18.8841 0 18.3502 0C17.8163 0 17.296 0.167383 16.8631 0.4784C16.4301 0.789416 16.1065 1.22827 15.9383 1.73269C14.8306 5.02115 12.972 8.00907 10.5085 10.4616C8.04497 12.9142 5.04371 14.7645 1.74056 15.8673C1.23386 16.0348 0.793014 16.3569 0.480581 16.7879C0.168148 17.2189 0 17.7369 0 18.2684C0 18.8 0.168148 19.318 0.480581 19.749C0.793014 20.18 1.23386 20.5021 1.74056 20.6696C5.04371 21.7724 8.04496 23.6228 10.5085 26.0754C12.972 28.5279 14.8306 31.5159 15.9383 34.8044C16.1065 35.3088 16.43 35.7478 16.863 36.0589C17.2959 36.3699 17.8163 36.5374 18.3502 36.5374C18.8841 36.5374 19.4045 36.3699 19.8375 36.0589C20.2704 35.7478 20.594 35.3088 20.7622 34.8044ZM8.60319 18.2687C12.61 15.8885 15.9595 12.5538 18.3502 8.56482C20.7339 12.5593 24.085 15.8955 28.0972 18.2687C24.0795 20.6347 20.7269 23.9724 18.3502 27.9722C15.9665 23.9778 12.6155 20.6417 8.60319 18.2687Z" fill="white"/>
<path d="M28.828 53.5844C29.1874 52.5273 29.684 51.5214 30.3051 50.5923C31.1813 49.2927 32.2938 48.1677 33.5852 47.2752C34.5577 46.6031 35.6219 46.0734 36.7455 45.7022C37.0388 45.602 37.2996 45.4252 37.5006 45.1902C37.7017 44.9552 37.8356 44.6708 37.8883 44.3666C37.9409 44.0624 37.9105 43.7497 37.8001 43.4612C37.6897 43.1728 37.5034 42.9192 37.2608 42.727C37.1046 42.6094 36.9306 42.5172 36.7455 42.4536C35.1866 41.9339 33.7454 41.1148 32.5034 40.0426C30.8147 38.5738 29.5466 36.6861 28.828 34.5713C28.716 34.2284 28.4978 33.9296 28.2047 33.7176C27.9116 33.5057 27.5587 33.3916 27.1965 33.3916C26.8342 33.3916 26.4813 33.5057 26.1882 33.7176C25.8951 33.9296 25.677 34.2284 25.5649 34.5713C24.9471 36.4051 23.9106 38.0713 22.5368 39.439C21.163 40.8067 19.4894 41.8386 17.6474 42.4536C17.3068 42.5691 17.011 42.7878 16.8016 43.0791C16.5921 43.3704 16.4795 43.7197 16.4795 44.0779C16.4795 44.4362 16.5921 44.7854 16.8016 45.0767C17.011 45.368 17.3068 45.5867 17.6474 45.7022C19.2542 46.2364 20.7374 47.0851 22.0097 48.1985C22.9805 49.0795 23.814 50.0995 24.4829 51.225C24.9297 51.9694 25.2926 52.7607 25.5649 53.5844C25.6809 53.9235 25.9006 54.218 26.1932 54.4265C26.4858 54.635 26.8366 54.7472 27.1964 54.7472C27.5562 54.7472 27.9071 54.635 28.1996 54.4265C28.4922 54.218 28.712 53.9235 28.828 53.5844ZM23.4868 44.9841C23.0574 44.6591 22.6281 44.3685 22.1816 44.0778C24.2028 42.7952 25.9152 41.0847 27.1966 39.0681C27.6589 39.8148 28.1877 40.5187 28.7766 41.1712C29.6268 42.1152 30.5834 42.9586 31.6275 43.6846C31.8153 43.8255 32.0101 43.9567 32.2113 44.0778C30.8273 44.9544 29.5827 46.0321 28.5188 47.2752C28.0343 47.8405 27.5924 48.4406 27.1965 49.0706C26.2085 47.5037 24.9531 46.1207 23.4868 44.9841Z" fill="white"/>
<path d="M88.5414 0.242573C87.9296 -0.0434847 87.2289 -0.0768839 86.5924 0.149671C85.9559 0.376225 85.4354 0.844323 85.1444 1.45173L68.7761 35.8832L61.859 32.6241L61.8131 32.6024C61.5176 32.4673 61.1977 32.3929 60.8726 32.384C60.366 32.3454 59.8596 32.4614 59.4209 32.7164C58.9821 32.9714 58.6317 33.3533 58.4162 33.8114C52.9398 45.269 43.9011 54.6651 32.6396 60.607L28.116 62.999C27.7668 63.1772 27.4652 63.4354 27.236 63.7524C27.0068 64.0694 26.8565 64.4361 26.7976 64.8222C26.7303 65.2064 26.753 65.6009 26.8641 65.9749C26.9751 66.3489 27.1715 66.6922 27.4378 66.9782C39.9182 80.3884 57.1128 88.4899 75.4421 89.5965C75.8331 89.6202 76.2243 89.5537 76.5852 89.4021C76.9461 89.2504 77.2669 89.0178 77.5226 88.7223C77.7853 88.4322 77.9749 88.0841 78.0758 87.7067C78.1768 87.3292 78.1861 86.9333 78.1031 86.5516L77.0931 81.5523C74.5689 69.115 76.1371 56.199 81.5652 44.7186C81.7844 44.2623 81.8589 43.7503 81.7787 43.2508C81.6986 42.7513 81.4676 42.2879 81.1165 41.9223C80.9034 41.6778 80.6429 41.4786 80.3506 41.3368L80.3045 41.315L73.3874 38.056L89.7558 3.62445C90.0432 3.01536 90.0768 2.31782 89.8492 1.68416C89.6217 1.05051 89.1515 0.532245 88.5414 0.242573ZM72.0946 82.5687L72.4275 84.2427C61.3392 83.0072 50.7423 79.0102 41.6154 72.6206C45.5514 70.2732 49.231 67.5239 52.5946 64.4173C53.0903 63.9588 53.3828 63.3231 53.4077 62.6499C53.4326 61.9768 53.1879 61.3214 52.7274 60.8279C52.2669 60.3343 51.6283 60.0432 50.9521 60.0184C50.276 59.9936 49.6176 60.2372 49.1219 60.6957C45.963 63.6112 42.5043 66.1871 38.803 68.3809C38.3366 68.6759 37.813 69.014 37.3197 69.3283C36.0086 68.2337 34.7417 67.1035 33.5076 65.9048L35.0192 65.0998C43.4076 60.683 50.7082 54.4698 56.3955 46.9072L72.6737 54.577C70.4049 63.7503 70.2071 73.3102 72.0946 82.5687ZM75.9087 44.8631C75.2468 46.4336 74.6309 48.0257 74.0953 49.6277L69.0226 47.2377L64.4113 45.0649L59.3387 42.6749C60.2435 41.2466 61.0898 39.7631 61.8902 38.2578L66.5937 40.474L71.205 42.6468L75.9087 44.8631Z" fill="white"/>
</g>
<defs>
<clipPath id="clip0_857_1921">
<rect width="90" height="112" fill="white"/>
</clipPath>
</defs>
</svg>
