<svg width="124" height="125" viewBox="0 0 124 125" fill="none" xmlns="http://www.w3.org/2000/svg">
<path d="M80.8726 79.5799C79.872 79.5725 77.845 79.5651 75.7836 79.5577C73.6163 79.5502 71.4103 79.5428 70.322 79.5342C70.3184 79.5342 70.3147 79.5342 70.3116 79.5342C69.6229 79.5342 69.0622 80.0938 69.0567 80.7894C69.0512 81.4874 69.6082 82.0581 70.3012 82.0643C71.3925 82.073 73.6028 82.0804 75.775 82.0878C77.8321 82.0952 79.8548 82.1026 80.853 82.11H80.8628C81.5516 82.11 82.1123 81.5504 82.1178 80.8548C82.1233 80.1556 81.5657 79.5848 80.8726 79.5799Z" fill="white"/>
<path d="M111.43 67.6758C111.849 66.832 112.419 65.5447 112.545 64.119C112.679 62.6019 112.266 61.1417 111.412 60.1126C109.791 58.1656 107.057 58.0433 105.07 58.7845C104.055 59.1632 103.171 59.7356 102.367 60.3734C102.365 59.1854 102.363 57.9534 102.362 56.6919C106.26 54.6882 109.473 51.4486 111.43 47.5002C111.849 46.6565 112.419 45.3704 112.545 43.9423C112.679 42.4239 112.266 40.9649 111.412 39.937C109.793 37.9888 107.061 37.8665 105.07 38.609C104.051 38.9893 103.163 39.5652 102.357 40.2064C102.357 38.9632 102.358 37.7315 102.359 36.517C106.257 34.5145 109.472 31.274 111.43 27.3235C111.849 26.4797 112.419 25.1924 112.545 23.7667C112.679 22.2484 112.266 20.7881 111.412 19.7615C109.793 17.8133 107.061 17.691 105.07 18.4334C104.065 18.8082 103.187 19.3733 102.388 20.0043C102.399 17.1045 102.412 15.0484 102.427 14.2973C102.508 10.8665 102.424 7.56675 100.539 4.89826C99.3022 3.14645 97.2874 1.83444 94.8676 1.20561C92.8307 0.673151 90.759 0.649678 88.6597 0.626205C86.1357 0.606439 80.9719 0.589143 75.7677 0.571847C70.4955 0.554551 65.1822 0.537255 62.5344 0.516253C60.3818 0.496487 57.6936 0.477956 55.5183 1.9308C53.8289 3.04391 52.5899 4.99833 52.028 7.43704C51.5592 9.51994 51.6137 11.6646 51.6621 13.5536C51.6988 15.217 51.725 20.538 51.7408 27.4229C50.1244 24.686 48.1574 23.997 46.5983 23.4603C46.3366 23.3702 46.0798 23.2824 45.8311 23.1848C43.2624 22.1805 40.5472 23.4641 38.9957 25.1825C37.4178 26.9294 36.6837 29.1729 36.12 31.1397C33.6089 39.8938 32.7308 49.084 31.8821 57.9704C31.6541 60.3535 31.4268 62.7354 31.1688 65.1098C30.6398 69.9807 29.9191 75.1967 28.7152 80.3858C27.553 79.6676 26.1266 78.9988 24.5687 79.0552C23.1986 79.0984 21.7917 79.7099 20.6091 80.7786C19.6458 81.6458 18.9454 82.6811 18.2297 83.7386C17.4012 84.9728 16.5599 86.2848 15.7112 87.6079C14.8509 88.9508 13.9832 90.3048 13.1119 91.6008C12.4035 92.6583 11.4329 94.105 11.4298 95.7987C11.4188 97.128 12.0114 98.5006 13.1033 99.6693C13.9979 100.617 15.085 101.309 16.0421 101.916C18.8958 103.74 43.4431 120.215 46.2288 122.177C47.154 122.834 48.2031 123.578 49.4292 124.049C50.2025 124.342 50.9752 124.487 51.7081 124.487C52.384 124.487 53.0262 124.363 53.6028 124.114C55.1629 123.452 56.1108 121.992 56.8026 120.926C57.6409 119.636 58.4785 118.289 59.3094 116.954C60.152 115.6 60.9878 114.256 61.8108 112.994C61.812 112.992 61.8402 112.949 61.8408 112.947C62.4989 111.927 63.1797 110.873 63.6043 109.638C64.1264 108.126 64.1435 106.581 63.6533 105.288C63.1317 103.917 62.0988 102.9 61.075 102.122C66.0872 96.1018 72.7135 91.4585 80.1563 88.978C80.1663 88.9746 80.1726 88.9666 80.1824 88.963C83.7189 88.9507 86.8594 88.9391 88.6572 88.9286C88.659 88.9286 88.7534 88.9273 88.7559 88.9273C90.759 88.9051 92.8307 88.8816 94.8657 88.3504C97.2874 87.7203 99.3022 86.4083 100.54 84.6553C102.135 82.3892 102.436 79.6778 102.444 76.8237C106.303 74.818 109.486 71.5974 111.43 67.6758ZM105.941 40.981C107.106 40.5498 108.695 40.6079 109.489 41.5628C109.918 42.0793 110.121 42.8637 110.045 43.7174C109.977 44.4883 109.712 45.3061 109.185 46.3686C107.66 49.4443 105.268 52.0324 102.36 53.807C102.357 50.4916 102.356 47.0316 102.356 43.5829C103.456 42.5262 104.6 41.4825 105.941 40.981ZM105.941 20.8054C107.106 20.3743 108.695 20.4323 109.489 21.3873C109.918 21.9037 110.121 22.6882 110.045 23.5419C109.977 24.3115 109.712 25.1294 109.185 26.1931C107.661 29.2693 105.269 31.8562 102.361 33.6296C102.365 29.8672 102.37 26.3629 102.378 23.3853C103.472 22.3358 104.61 21.3024 105.941 20.8054ZM53.4624 110.526C53.354 111.69 52.4679 112.771 51.3551 113.097C49.871 113.529 48.662 112.64 48.0818 111.74C47.4849 110.816 47.1963 109.41 48.1755 108.237C48.7644 107.533 49.5181 107.272 50.2424 107.272C50.7025 107.272 51.1517 107.377 51.5377 107.54C52.5151 107.953 53.6058 108.983 53.4624 110.526ZM39.0478 105.901C38.8027 106.149 38.4803 106.274 38.158 106.274C37.8382 106.274 37.5177 106.151 37.2732 105.906L36.9129 105.542C36.4239 105.047 36.4264 104.246 36.9178 103.754C37.408 103.259 38.2034 103.263 38.6924 103.758L39.0429 104.112C39.5343 104.605 39.5367 105.405 39.0478 105.901ZM33.2565 99.0553C33.8105 99.4753 33.9226 100.268 33.5065 100.827C33.2596 101.158 32.8833 101.332 32.5016 101.332C32.2393 101.332 31.9752 101.249 31.7491 101.079L20.9461 92.9004C20.3921 92.4804 20.28 91.6873 20.6961 91.1288C21.1127 90.5704 21.8983 90.458 22.4535 90.8768L33.2565 99.0553ZM58.9852 100.71C55.1037 98.1576 35.6691 85.1147 30.9424 81.8923C32.3088 76.2795 33.0937 70.6335 33.664 65.3841C33.9232 62.9997 34.1518 60.6067 34.3803 58.2125C35.2186 49.4411 36.085 40.3707 38.5306 31.8426C39.0165 30.1501 39.6366 28.2315 40.8517 26.8849C41.7954 25.841 43.4725 24.9799 44.9223 25.5432C45.203 25.6532 45.4922 25.7533 45.7876 25.8558C47.7999 26.5476 49.7007 27.2025 51.0567 32.5295C51.4972 34.2583 51.6828 36.3587 51.7565 38.6006C51.7585 41.5174 51.7591 44.5016 51.7583 47.4595C51.7582 47.5111 51.7571 47.5648 51.7571 47.6164C51.7571 47.6182 51.7582 47.6198 51.7582 47.6216C51.7542 60.7772 51.7222 73.277 51.6621 75.9975C51.6137 77.8902 51.5592 80.0348 52.0292 82.1252C52.5905 84.5577 53.8295 86.5109 55.5121 87.6203C57.4595 88.9212 59.8107 89.0435 61.8291 89.0435C62.0693 89.0435 62.3052 89.041 62.5344 89.0398C64.8187 89.0215 69.0879 89.0038 73.6023 88.987C67.9846 91.8164 62.9902 95.8441 58.9852 100.71ZM98.4939 83.1889C97.5993 84.4564 96.0882 85.4188 94.2376 85.9006C92.4968 86.3552 90.6665 86.3762 88.7283 86.3972C88.7277 86.3972 88.6554 86.3985 88.6388 86.3985C86.5364 86.4108 82.6055 86.4244 78.3462 86.4392C72.3037 86.4615 65.6001 86.4849 62.5154 86.5096C60.5999 86.5158 58.4393 86.5393 56.8921 85.5065C55.7468 84.7516 54.8877 83.347 54.4753 81.5593C54.0764 79.784 54.1267 77.8062 54.1708 76.058C54.2312 73.3269 54.2633 60.7726 54.2673 47.5722C54.2676 46.5941 54.2782 45.5965 54.2891 44.5945C54.311 42.5784 54.3286 40.5358 54.2655 38.5716C54.2574 26.6814 54.2259 15.9889 54.1708 13.493C54.1267 11.7486 54.0764 9.77073 54.4741 8.00409C54.8877 6.2078 55.7462 4.80314 56.8982 4.04459C58.2114 3.16745 59.9044 3.04391 61.9621 3.04391C62.1435 3.04391 62.3279 3.04514 62.5148 3.04638C65.165 3.06738 70.4832 3.08468 75.7597 3.10197C80.959 3.11927 86.1185 3.13656 88.7283 3.15757C90.6665 3.17857 92.4968 3.19957 94.2395 3.65544C96.0882 4.13601 97.5993 5.0984 98.4945 6.36593C99.9321 8.40066 99.9884 11.2508 99.918 14.2405C99.823 18.8078 99.823 70.747 99.9186 75.3168C99.9884 78.3003 99.9321 81.1467 98.4939 83.1889ZM102.412 73.9492C102.395 71.9702 102.382 68.3106 102.373 63.7427C103.467 62.6915 104.607 61.6554 105.941 61.1565C107.103 60.7241 108.696 60.7846 109.488 61.7371C109.918 62.2548 110.121 63.0405 110.045 63.8942C109.977 64.6638 109.712 65.4817 109.185 66.5454C107.67 69.6033 105.296 72.1765 102.412 73.9492Z" fill="white"/>
<path d="M69.7468 9.23227C70.8025 9.23969 72.908 9.2471 75.0116 9.25451C77.1398 9.26192 79.2654 9.2681 80.2973 9.27675H80.3071C80.9959 9.27675 81.5566 8.71711 81.5621 8.02157C81.5676 7.32233 81.01 6.75156 80.317 6.74662C79.2826 6.73798 77.1526 6.7318 75.0202 6.72439C72.9209 6.71697 70.8197 6.70956 69.7651 6.70215C69.7621 6.70215 69.759 6.70215 69.756 6.70215C69.0672 6.70215 68.5065 7.26179 68.501 7.95733C68.4961 8.65657 69.0537 9.22733 69.7468 9.23227Z" fill="white"/>
<path d="M84.4835 9.27329H85.595C86.2881 9.27329 86.85 8.70747 86.85 8.00823C86.85 7.30898 86.2881 6.74316 85.595 6.74316H84.4835C83.7904 6.74316 83.2285 7.30898 83.2285 8.00823C83.2285 8.70747 83.7904 9.27329 84.4835 9.27329Z" fill="white"/>
<path d="M82.9307 27.2667C76.1162 24.3931 68.8194 25.9991 64.3425 31.3633C59.8026 36.8028 59.5072 44.4043 63.5894 50.7271C66.8402 55.7627 71.9273 58.593 77.2853 58.593C78.7351 58.593 80.2052 58.3855 81.6635 57.958C87.9015 56.1333 92.6811 50.3059 93.2871 43.7854C93.947 36.6842 89.882 30.1995 82.9307 27.2667ZM74.444 48.8765C74.4066 48.8802 74.3692 48.8814 74.3318 48.8814C74.0334 48.8814 73.743 48.774 73.5144 48.5763C72.9972 48.1291 72.2582 47.4236 71.5192 46.717C70.809 46.0375 70.0988 45.358 69.6025 44.9281C69.0761 44.4735 69.0155 43.6754 69.4665 43.1454C69.9181 42.6142 70.7116 42.5536 71.2361 43.0083C71.7564 43.458 72.5021 44.1696 73.2466 44.8812C73.5714 45.1913 73.8968 45.5026 74.2007 45.7892C75.398 44.3475 76.6462 42.928 77.8601 41.5456C79.3455 39.8543 80.881 38.1062 82.2941 36.3531C82.731 35.812 83.5221 35.7305 84.0595 36.169C84.5969 36.6101 84.679 37.4069 84.2415 37.9493C82.7953 39.7431 81.242 41.5122 79.7395 43.222C78.2541 44.9133 76.7185 46.6614 75.3055 48.4145C75.0923 48.6788 74.7816 48.8456 74.444 48.8765Z" fill="white"/>
<path d="M29.6079 31.0098C28.9357 30.8418 28.255 31.2594 28.0901 31.9376C26.2751 39.4008 25.2371 47.0813 25.0055 54.7656C24.9846 55.4636 25.5288 56.0467 26.2218 56.0689H26.2604C26.9357 56.0689 27.4933 55.5278 27.5141 54.8422C27.7402 47.3346 28.7544 39.8307 30.5277 32.5405C30.6925 31.8623 30.2808 31.1766 29.6079 31.0098Z" fill="white"/>
<path d="M30.9951 28.7679C31.1563 28.8384 31.3242 28.8705 31.489 28.8705C31.9755 28.8705 32.4388 28.5839 32.6428 28.1045L33.3065 26.5442C33.5797 25.9018 33.285 25.1581 32.6477 24.8826C32.0123 24.6058 31.2733 24.9048 31 25.546L30.3364 27.1063C30.0631 27.7487 30.3578 28.4924 30.9951 28.7679Z" fill="white"/>
<path d="M82.8314 94.8489C82.5721 94.2003 81.8405 93.8878 81.1971 94.1509C76.9911 95.8681 73.2416 98.6416 70.3524 102.17C69.9112 102.709 69.9872 103.507 70.5221 103.951C70.7556 104.145 71.0387 104.241 71.32 104.241C71.6815 104.241 72.0406 104.084 72.2887 103.781C74.9126 100.575 78.319 98.0561 82.1395 96.4957C82.7817 96.2338 83.0918 95.4963 82.8314 94.8489Z" fill="white"/>
<path d="M86.9191 94.314L87.8033 93.8619C88.421 93.5456 88.6673 92.7834 88.3536 92.1607C88.0398 91.5381 87.2855 91.2922 86.666 91.606L85.7867 92.0557C85.1684 92.3707 84.9202 93.1318 85.2327 93.7556C85.454 94.1954 85.8951 94.4499 86.3541 94.4499C86.5441 94.4499 86.7371 94.4067 86.9191 94.314Z" fill="white"/>
</svg>
