<svg width="91" height="94" viewBox="0 0 91 94" fill="none" xmlns="http://www.w3.org/2000/svg">
<g clip-path="url(#clip0_989_390)">
<path d="M84.736 57.3566V52.7244C84.736 51.7256 84.3392 50.7677 83.633 50.0615C82.9267 49.3552 81.9688 48.9584 80.97 48.9584C81.3127 41.6905 79.6378 34.4695 76.1306 28.0946C77.9806 26.8054 79.4024 24.9922 80.2133 22.8882C81.0241 20.7843 81.1869 18.4858 80.6806 16.2885C80.1743 14.0913 79.0222 12.0958 77.3724 10.5588C75.7226 9.02179 73.6507 8.0136 71.4231 7.66392C70.9983 5.39229 69.7529 3.35624 67.9239 1.94351C66.095 0.530786 63.8104 -0.159928 61.5051 0.00290595C59.1998 0.16574 57.035 1.17075 55.4228 2.82654C53.8106 4.48233 52.8637 6.67324 52.7625 8.98203C51.9716 9.26448 48.5445 7.53211 41.4644 7.53211C35.0898 7.53334 28.81 9.07567 23.1601 12.0277C17.5102 14.9797 12.6577 19.2538 9.01612 24.4859C5.37457 29.718 3.05189 35.7529 2.24601 42.0764C1.44014 48.3998 2.17496 54.8244 4.38786 60.8026C3.05128 61.8481 1.96737 63.1812 1.21663 64.7031C0.465882 66.2249 0.0675824 67.8963 0.0513013 69.5931C0.0350203 71.2899 0.401177 72.9687 1.12258 74.5046C1.84399 76.0406 2.90211 77.3943 4.21839 78.4652C4.79305 80.4433 5.89754 82.2266 7.41241 83.6223C8.92729 85.018 10.7949 85.973 12.8133 86.384C14.8317 86.7951 16.924 86.6465 18.8641 85.9544C20.8041 85.2623 22.5181 84.053 23.8206 82.4572C30.9021 85.9789 38.877 87.2961 46.715 86.2388C54.5529 85.1814 61.8937 81.798 67.7889 76.5257V86.6187C67.7889 87.6175 68.1857 88.5754 68.8919 89.2817C69.5982 89.9879 70.5561 90.3847 71.5549 90.3847H86.619C87.6178 90.3847 88.5757 89.9879 89.282 89.2817C89.9883 88.5754 90.3851 87.6175 90.3851 86.6187V64.1543C90.3851 60.5201 87.6923 59.3338 84.736 57.3566ZM71.5549 69.6716H86.619V79.0866H71.5549V69.6716ZM86.619 65.9055H71.5549C71.5549 62.5914 71.1407 63.42 75.8859 60.2565H82.2881C87.2028 63.5329 86.619 62.6479 86.619 65.9055ZM80.97 56.4905H77.204V52.7244H80.97V56.4905ZM56.1895 11.5053C56.5622 10.8757 56.6705 10.1243 56.4908 9.41512C56.4908 7.91691 57.086 6.48005 58.1454 5.42065C59.2048 4.36125 60.6416 3.76608 62.1399 3.76608C63.6381 3.76608 65.0749 4.36125 66.1343 5.42065C67.1937 6.48005 67.7889 7.91691 67.7889 9.41512C67.7889 9.91453 67.9873 10.3935 68.3404 10.7466C68.6936 11.0997 69.1725 11.2981 69.6719 11.2981C71.5191 11.3112 73.2971 12.0027 74.6679 13.2411C76.0386 14.4795 76.9064 16.1784 77.1063 18.0149C77.3062 19.8513 76.8243 21.6972 75.7521 23.2015C74.68 24.7058 73.0924 25.7637 71.2913 26.1739C70.8341 26.2758 70.4313 26.5443 70.1615 26.9271C69.2752 28.192 68.0216 29.1537 66.5704 29.6822C65.1192 30.2107 63.5407 30.2803 62.0486 29.8816C60.5566 29.4829 59.2231 28.6351 58.229 27.4532C57.2348 26.2713 56.6281 24.8124 56.4908 23.2741C56.4522 22.8502 56.2711 22.4518 55.977 22.144C55.6829 21.8363 55.2932 21.6372 54.8714 21.5794C53.7446 21.4354 52.7088 20.8856 51.9582 20.0329C51.2075 19.1803 50.7934 18.0832 50.7934 16.9472C50.7934 15.8112 51.2075 14.7141 51.9582 13.8614C52.7088 13.0088 53.7446 12.4589 54.8714 12.315C55.134 12.2745 55.3858 12.182 55.6121 12.043C55.8385 11.904 56.0348 11.7212 56.1895 11.5053ZM24.9127 58.3735C24.3752 56.8276 23.4005 55.4709 22.1069 54.4681C20.8133 53.4654 19.2565 52.8596 17.6254 52.7244C16.5384 48.1168 16.8108 43.2928 18.4095 38.8368C20.0083 34.3808 22.8648 30.484 26.6331 27.6184C30.4015 24.7528 34.9199 23.0413 39.641 22.6914C44.3622 22.3415 49.0836 23.368 53.2332 25.6467C53.7788 27.6606 54.8777 29.4813 56.4054 30.9024C57.933 32.3236 59.8283 33.2883 61.8762 33.6872C74.5301 52.9692 55.6246 77.7497 33.631 70.2176C33.9966 68.8534 34.0505 67.4243 33.7887 66.0364C33.527 64.6485 32.9564 63.3372 32.1191 62.1997C31.2818 61.0623 30.1994 60.1277 28.9519 59.4654C27.7045 58.8031 26.324 58.4299 24.9127 58.3735ZM48.6575 12.0513C47.8771 13.1231 47.364 14.3657 47.1609 15.6759C46.9578 16.986 47.0707 18.3257 47.49 19.5834C42.8381 18.5579 38.0024 18.7255 33.4327 20.0708C28.863 21.4161 24.7078 23.8952 21.3535 27.2777C17.9993 30.6601 15.555 34.8359 14.248 39.4167C12.941 43.9975 12.8138 48.8345 13.8782 53.4776C12.702 53.9432 11.644 54.6646 10.781 55.5895C9.91793 56.5145 9.27141 57.6198 8.88826 58.8254C8.49946 58.9247 8.11606 59.0442 7.73962 59.1832C5.59033 53.2006 5.07385 46.7534 6.24332 40.505C7.41279 34.2565 10.226 28.4325 14.3934 23.6322C18.5608 18.8319 23.932 15.2286 29.9543 13.1932C35.9765 11.1577 42.4324 10.7636 48.6575 12.0513ZM15.0645 82.8527C13.3503 82.8499 11.6884 82.2625 10.3531 81.1875C9.01792 80.1124 8.08934 78.6141 7.72079 76.94C7.61897 76.4828 7.35043 76.08 6.96759 75.8102C5.70278 74.9239 4.741 73.6703 4.21253 72.2191C3.68406 70.7679 3.61447 69.1893 4.01317 67.6973C4.41188 66.2052 5.25961 64.8718 6.4415 63.8777C7.6234 62.8835 9.08233 62.2767 10.6206 62.1395C11.0446 62.1009 11.4429 61.9198 11.7507 61.6257C12.0585 61.3316 12.2575 60.9419 12.3153 60.5201C12.4593 59.3933 13.0091 58.3575 13.8618 57.6069C14.7145 56.8562 15.8115 56.4421 16.9476 56.4421C18.0836 56.4421 19.1806 56.8562 20.0333 57.6069C20.886 58.3575 21.4358 59.3933 21.5798 60.5201C21.68 61.023 21.9699 61.468 22.3895 61.7629C22.6959 61.9602 23.0383 62.095 23.397 62.1596C23.7557 62.2243 24.1236 62.2174 24.4796 62.1395C25.9778 62.1395 27.4147 62.7347 28.4741 63.7941C29.5335 64.8535 30.1286 66.2903 30.1286 67.7885C30.1286 69.2868 29.5335 70.7236 28.4741 71.783C27.4147 72.8424 25.9778 73.4376 24.4796 73.4376C23.9802 73.4376 23.5012 73.636 23.1481 73.9891C22.795 74.3422 22.5966 74.8212 22.5966 75.3206C22.5966 77.3182 21.803 79.234 20.3905 80.6466C18.978 82.0591 17.0622 82.8527 15.0645 82.8527ZM25.6659 79.0866C25.9224 78.3908 26.1116 77.6719 26.2308 76.94C28.4698 76.5274 30.4797 75.3081 31.8798 73.5129C56.4908 82.4761 78.4656 56.1515 66.2448 33.6495C68.785 33.1376 71.0719 31.7681 72.7224 29.7705C75.9828 35.6209 77.5356 42.269 77.204 48.9584C76.2052 48.9584 75.2472 49.3552 74.541 50.0615C73.8347 50.7677 73.4379 51.7256 73.4379 52.7244V57.3566C67.2805 61.4616 67.7889 60.313 67.7889 71.1968C62.5824 76.9144 55.6587 80.7848 48.061 82.2249C40.4634 83.6649 32.6035 82.5965 25.6659 79.1808V79.0866ZM71.5549 86.6187V82.8527H86.619V86.6187H71.5549Z" fill="#42C652"/>
</g>
<defs>
<clipPath id="clip0_989_390">
<rect width="90.3846" height="94" fill="white" transform="translate(0.000976562)"/>
</clipPath>
</defs>
</svg>
